<?xml version="1.0" standalone="no"?>
  <!DOCTYPE svg PUBLIC "-//W3C//DTD SVG 1.1//EN" "http://www.w3.org/Graphics/SVG/1.1/DTD/svg11.dtd" >
  <svg>
  <metadata>
  Created by font-carrier
  </metadata>
  <defs>
  <font id="VLADOVSKIY" horiz-adv-x="1316" vert-adv-y="1316" >
    <font-face
      
      font-family="VLADOVSKIY"
      
      font-weight="400"
      
      font-stretch="normal"
      
      units-per-em="1000"
      
      ascent="1059"
      
      descent="-184"
      
    />
      <missing-glyph />

      

      
      <glyph glyph-name="uni7" unicode="&#x7;" d="M1160 88Q1155 133 1188 188Q1214 233 1246.50 255Q1279 277 1300 265Q1317 255 1318.50 233Q1320 211 1311 184Q1302 157 1285.50 129Q1269 101 1249.50 80.50Q1230 60 1211 51.50Q1192 43 1177 54L1175 54Q1139 20 1099 4Q1059-12 1022-10Q985-8 953.50 13Q922 34 902 74Q885 63 866 53.50Q847 44 825 35Q774 14 696-2Q618-18 528-22Q438-26 344-15Q250-4 167 28L39 193Q90 170 172.50 141.50Q255 113 351 90Q447 67 545.50 55Q644 43 727 53.50Q810 64 867 102.50Q924 141 937 219Q943 256 909.50 303Q876 350 805 381Q775 394 737.50 400.50Q700 407 663 410Q626 413 593 413.50Q560 414 537 415L529 470Q559 474 598.50 482Q638 490 673.50 503.50Q709 517 733.50 536Q758 555 760 581Q762 606 748 624Q734 642 713.50 653.50Q693 665 669 671.50Q645 678 626 681Q612 682 599.50 683.50Q587 685 575 685L418 144L372 111L272 666Q250 661 226.50 654.50Q203 648 179 640L192 697Q203 701 221.50 707Q240 713 264 717L252 782L279 823L302 722Q354 731 419 734.50Q484 738 549 734L587 853L614 823L587 728Q629 722 665.50 711Q702 700 729 683Q756 666 771 642.50Q786 619 785 589Q784 559 768 537Q752 515 726.50 498.50Q701 482 668 471Q635 460 599 451Q666 450 733.50 437.50Q801 425 853 398Q878 385 902.50 369.50Q927 354 947 334.50Q967 315 980.50 290Q994 265 998 232Q1000 210 988 177Q976 144 948 113Q956 79 976 59Q996 39 1024.50 34.50Q1053 30 1088 43Q1123 56 1160 88M398 262L534 689Q481 691 425.50 688Q370 685 310 674L398 262Z"  horiz-adv-x="1307" vert-adv-y="1000"  />

      
      <glyph glyph-name="uni9" unicode="&#x9;" d="M1160 88Q1155 133 1188 188Q1214 233 1246.50 255Q1279 277 1300 265Q1317 255 1318.50 233Q1320 211 1311 184Q1302 157 1285.50 129Q1269 101 1249.50 80.50Q1230 60 1211 51.50Q1192 43 1177 54L1175 54Q1139 20 1099 4Q1059-12 1022-10Q985-8 953.50 13Q922 34 902 74Q885 63 866 53.50Q847 44 825 35Q774 14 696-2Q618-18 528-22Q438-26 344-15Q250-4 167 28L39 193Q90 170 172.50 141.50Q255 113 351 90Q447 67 545.50 55Q644 43 727 53.50Q810 64 867 102.50Q924 141 937 219Q943 256 909.50 303Q876 350 805 381Q775 394 737.50 400.50Q700 407 663 410Q626 413 593 413.50Q560 414 537 415L529 470Q559 474 598.50 482Q638 490 673.50 503.50Q709 517 733.50 536Q758 555 760 581Q762 606 748 624Q734 642 713.50 653.50Q693 665 669 671.50Q645 678 626 681Q612 682 599.50 683.50Q587 685 575 685L418 144L372 111L272 666Q250 661 226.50 654.50Q203 648 179 640L192 697Q203 701 221.50 707Q240 713 264 717L252 782L279 823L302 722Q354 731 419 734.50Q484 738 549 734L587 853L614 823L587 728Q629 722 665.50 711Q702 700 729 683Q756 666 771 642.50Q786 619 785 589Q784 559 768 537Q752 515 726.50 498.50Q701 482 668 471Q635 460 599 451Q666 450 733.50 437.50Q801 425 853 398Q878 385 902.50 369.50Q927 354 947 334.50Q967 315 980.50 290Q994 265 998 232Q1000 210 988 177Q976 144 948 113Q956 79 976 59Q996 39 1024.50 34.50Q1053 30 1088 43Q1123 56 1160 88M398 262L534 689Q481 691 425.50 688Q370 685 310 674L398 262Z"  horiz-adv-x="1307" vert-adv-y="1000"  />

      
      <glyph glyph-name="unie" unicode="&#xe;" d="M1160 88Q1155 133 1188 188Q1214 233 1246.50 255Q1279 277 1300 265Q1317 255 1318.50 233Q1320 211 1311 184Q1302 157 1285.50 129Q1269 101 1249.50 80.50Q1230 60 1211 51.50Q1192 43 1177 54L1175 54Q1139 20 1099 4Q1059-12 1022-10Q985-8 953.50 13Q922 34 902 74Q885 63 866 53.50Q847 44 825 35Q774 14 696-2Q618-18 528-22Q438-26 344-15Q250-4 167 28L39 193Q90 170 172.50 141.50Q255 113 351 90Q447 67 545.50 55Q644 43 727 53.50Q810 64 867 102.50Q924 141 937 219Q943 256 909.50 303Q876 350 805 381Q775 394 737.50 400.50Q700 407 663 410Q626 413 593 413.50Q560 414 537 415L529 470Q559 474 598.50 482Q638 490 673.50 503.50Q709 517 733.50 536Q758 555 760 581Q762 606 748 624Q734 642 713.50 653.50Q693 665 669 671.50Q645 678 626 681Q612 682 599.50 683.50Q587 685 575 685L418 144L372 111L272 666Q250 661 226.50 654.50Q203 648 179 640L192 697Q203 701 221.50 707Q240 713 264 717L252 782L279 823L302 722Q354 731 419 734.50Q484 738 549 734L587 853L614 823L587 728Q629 722 665.50 711Q702 700 729 683Q756 666 771 642.50Q786 619 785 589Q784 559 768 537Q752 515 726.50 498.50Q701 482 668 471Q635 460 599 451Q666 450 733.50 437.50Q801 425 853 398Q878 385 902.50 369.50Q927 354 947 334.50Q967 315 980.50 290Q994 265 998 232Q1000 210 988 177Q976 144 948 113Q956 79 976 59Q996 39 1024.50 34.50Q1053 30 1088 43Q1123 56 1160 88M398 262L534 689Q481 691 425.50 688Q370 685 310 674L398 262Z"  horiz-adv-x="1307" vert-adv-y="1000"  />

      
      <glyph glyph-name="unif" unicode="&#xf;" d="M1160 88Q1155 133 1188 188Q1214 233 1246.50 255Q1279 277 1300 265Q1317 255 1318.50 233Q1320 211 1311 184Q1302 157 1285.50 129Q1269 101 1249.50 80.50Q1230 60 1211 51.50Q1192 43 1177 54L1175 54Q1139 20 1099 4Q1059-12 1022-10Q985-8 953.50 13Q922 34 902 74Q885 63 866 53.50Q847 44 825 35Q774 14 696-2Q618-18 528-22Q438-26 344-15Q250-4 167 28L39 193Q90 170 172.50 141.50Q255 113 351 90Q447 67 545.50 55Q644 43 727 53.50Q810 64 867 102.50Q924 141 937 219Q943 256 909.50 303Q876 350 805 381Q775 394 737.50 400.50Q700 407 663 410Q626 413 593 413.50Q560 414 537 415L529 470Q559 474 598.50 482Q638 490 673.50 503.50Q709 517 733.50 536Q758 555 760 581Q762 606 748 624Q734 642 713.50 653.50Q693 665 669 671.50Q645 678 626 681Q612 682 599.50 683.50Q587 685 575 685L418 144L372 111L272 666Q250 661 226.50 654.50Q203 648 179 640L192 697Q203 701 221.50 707Q240 713 264 717L252 782L279 823L302 722Q354 731 419 734.50Q484 738 549 734L587 853L614 823L587 728Q629 722 665.50 711Q702 700 729 683Q756 666 771 642.50Q786 619 785 589Q784 559 768 537Q752 515 726.50 498.50Q701 482 668 471Q635 460 599 451Q666 450 733.50 437.50Q801 425 853 398Q878 385 902.50 369.50Q927 354 947 334.50Q967 315 980.50 290Q994 265 998 232Q1000 210 988 177Q976 144 948 113Q956 79 976 59Q996 39 1024.50 34.50Q1053 30 1088 43Q1123 56 1160 88M398 262L534 689Q481 691 425.50 688Q370 685 310 674L398 262Z"  horiz-adv-x="1307" vert-adv-y="1000"  />

      
      <glyph glyph-name="uni10" unicode="&#x10;" d="M1160 88Q1155 133 1188 188Q1214 233 1246.50 255Q1279 277 1300 265Q1317 255 1318.50 233Q1320 211 1311 184Q1302 157 1285.50 129Q1269 101 1249.50 80.50Q1230 60 1211 51.50Q1192 43 1177 54L1175 54Q1139 20 1099 4Q1059-12 1022-10Q985-8 953.50 13Q922 34 902 74Q885 63 866 53.50Q847 44 825 35Q774 14 696-2Q618-18 528-22Q438-26 344-15Q250-4 167 28L39 193Q90 170 172.50 141.50Q255 113 351 90Q447 67 545.50 55Q644 43 727 53.50Q810 64 867 102.50Q924 141 937 219Q943 256 909.50 303Q876 350 805 381Q775 394 737.50 400.50Q700 407 663 410Q626 413 593 413.50Q560 414 537 415L529 470Q559 474 598.50 482Q638 490 673.50 503.50Q709 517 733.50 536Q758 555 760 581Q762 606 748 624Q734 642 713.50 653.50Q693 665 669 671.50Q645 678 626 681Q612 682 599.50 683.50Q587 685 575 685L418 144L372 111L272 666Q250 661 226.50 654.50Q203 648 179 640L192 697Q203 701 221.50 707Q240 713 264 717L252 782L279 823L302 722Q354 731 419 734.50Q484 738 549 734L587 853L614 823L587 728Q629 722 665.50 711Q702 700 729 683Q756 666 771 642.50Q786 619 785 589Q784 559 768 537Q752 515 726.50 498.50Q701 482 668 471Q635 460 599 451Q666 450 733.50 437.50Q801 425 853 398Q878 385 902.50 369.50Q927 354 947 334.50Q967 315 980.50 290Q994 265 998 232Q1000 210 988 177Q976 144 948 113Q956 79 976 59Q996 39 1024.50 34.50Q1053 30 1088 43Q1123 56 1160 88M398 262L534 689Q481 691 425.50 688Q370 685 310 674L398 262Z"  horiz-adv-x="1307" vert-adv-y="1000"  />

      
      <glyph glyph-name="uni11" unicode="&#x11;" d="M1160 88Q1155 133 1188 188Q1214 233 1246.50 255Q1279 277 1300 265Q1317 255 1318.50 233Q1320 211 1311 184Q1302 157 1285.50 129Q1269 101 1249.50 80.50Q1230 60 1211 51.50Q1192 43 1177 54L1175 54Q1139 20 1099 4Q1059-12 1022-10Q985-8 953.50 13Q922 34 902 74Q885 63 866 53.50Q847 44 825 35Q774 14 696-2Q618-18 528-22Q438-26 344-15Q250-4 167 28L39 193Q90 170 172.50 141.50Q255 113 351 90Q447 67 545.50 55Q644 43 727 53.50Q810 64 867 102.50Q924 141 937 219Q943 256 909.50 303Q876 350 805 381Q775 394 737.50 400.50Q700 407 663 410Q626 413 593 413.50Q560 414 537 415L529 470Q559 474 598.50 482Q638 490 673.50 503.50Q709 517 733.50 536Q758 555 760 581Q762 606 748 624Q734 642 713.50 653.50Q693 665 669 671.50Q645 678 626 681Q612 682 599.50 683.50Q587 685 575 685L418 144L372 111L272 666Q250 661 226.50 654.50Q203 648 179 640L192 697Q203 701 221.50 707Q240 713 264 717L252 782L279 823L302 722Q354 731 419 734.50Q484 738 549 734L587 853L614 823L587 728Q629 722 665.50 711Q702 700 729 683Q756 666 771 642.50Q786 619 785 589Q784 559 768 537Q752 515 726.50 498.50Q701 482 668 471Q635 460 599 451Q666 450 733.50 437.50Q801 425 853 398Q878 385 902.50 369.50Q927 354 947 334.50Q967 315 980.50 290Q994 265 998 232Q1000 210 988 177Q976 144 948 113Q956 79 976 59Q996 39 1024.50 34.50Q1053 30 1088 43Q1123 56 1160 88M398 262L534 689Q481 691 425.50 688Q370 685 310 674L398 262Z"  horiz-adv-x="1307" vert-adv-y="1000"  />

      
      <glyph glyph-name="uni13" unicode="&#x13;" d="M1160 88Q1155 133 1188 188Q1214 233 1246.50 255Q1279 277 1300 265Q1317 255 1318.50 233Q1320 211 1311 184Q1302 157 1285.50 129Q1269 101 1249.50 80.50Q1230 60 1211 51.50Q1192 43 1177 54L1175 54Q1139 20 1099 4Q1059-12 1022-10Q985-8 953.50 13Q922 34 902 74Q885 63 866 53.50Q847 44 825 35Q774 14 696-2Q618-18 528-22Q438-26 344-15Q250-4 167 28L39 193Q90 170 172.50 141.50Q255 113 351 90Q447 67 545.50 55Q644 43 727 53.50Q810 64 867 102.50Q924 141 937 219Q943 256 909.50 303Q876 350 805 381Q775 394 737.50 400.50Q700 407 663 410Q626 413 593 413.50Q560 414 537 415L529 470Q559 474 598.50 482Q638 490 673.50 503.50Q709 517 733.50 536Q758 555 760 581Q762 606 748 624Q734 642 713.50 653.50Q693 665 669 671.50Q645 678 626 681Q612 682 599.50 683.50Q587 685 575 685L418 144L372 111L272 666Q250 661 226.50 654.50Q203 648 179 640L192 697Q203 701 221.50 707Q240 713 264 717L252 782L279 823L302 722Q354 731 419 734.50Q484 738 549 734L587 853L614 823L587 728Q629 722 665.50 711Q702 700 729 683Q756 666 771 642.50Q786 619 785 589Q784 559 768 537Q752 515 726.50 498.50Q701 482 668 471Q635 460 599 451Q666 450 733.50 437.50Q801 425 853 398Q878 385 902.50 369.50Q927 354 947 334.50Q967 315 980.50 290Q994 265 998 232Q1000 210 988 177Q976 144 948 113Q956 79 976 59Q996 39 1024.50 34.50Q1053 30 1088 43Q1123 56 1160 88M398 262L534 689Q481 691 425.50 688Q370 685 310 674L398 262Z"  horiz-adv-x="1307" vert-adv-y="1000"  />

      
      <glyph glyph-name="uni14" unicode="&#x14;" d="M1160 88Q1155 133 1188 188Q1214 233 1246.50 255Q1279 277 1300 265Q1317 255 1318.50 233Q1320 211 1311 184Q1302 157 1285.50 129Q1269 101 1249.50 80.50Q1230 60 1211 51.50Q1192 43 1177 54L1175 54Q1139 20 1099 4Q1059-12 1022-10Q985-8 953.50 13Q922 34 902 74Q885 63 866 53.50Q847 44 825 35Q774 14 696-2Q618-18 528-22Q438-26 344-15Q250-4 167 28L39 193Q90 170 172.50 141.50Q255 113 351 90Q447 67 545.50 55Q644 43 727 53.50Q810 64 867 102.50Q924 141 937 219Q943 256 909.50 303Q876 350 805 381Q775 394 737.50 400.50Q700 407 663 410Q626 413 593 413.50Q560 414 537 415L529 470Q559 474 598.50 482Q638 490 673.50 503.50Q709 517 733.50 536Q758 555 760 581Q762 606 748 624Q734 642 713.50 653.50Q693 665 669 671.50Q645 678 626 681Q612 682 599.50 683.50Q587 685 575 685L418 144L372 111L272 666Q250 661 226.50 654.50Q203 648 179 640L192 697Q203 701 221.50 707Q240 713 264 717L252 782L279 823L302 722Q354 731 419 734.50Q484 738 549 734L587 853L614 823L587 728Q629 722 665.50 711Q702 700 729 683Q756 666 771 642.50Q786 619 785 589Q784 559 768 537Q752 515 726.50 498.50Q701 482 668 471Q635 460 599 451Q666 450 733.50 437.50Q801 425 853 398Q878 385 902.50 369.50Q927 354 947 334.50Q967 315 980.50 290Q994 265 998 232Q1000 210 988 177Q976 144 948 113Q956 79 976 59Q996 39 1024.50 34.50Q1053 30 1088 43Q1123 56 1160 88M398 262L534 689Q481 691 425.50 688Q370 685 310 674L398 262Z"  horiz-adv-x="1307" vert-adv-y="1000"  />

      
      <glyph glyph-name="uni15" unicode="&#x15;" d="M1160 88Q1155 133 1188 188Q1214 233 1246.50 255Q1279 277 1300 265Q1317 255 1318.50 233Q1320 211 1311 184Q1302 157 1285.50 129Q1269 101 1249.50 80.50Q1230 60 1211 51.50Q1192 43 1177 54L1175 54Q1139 20 1099 4Q1059-12 1022-10Q985-8 953.50 13Q922 34 902 74Q885 63 866 53.50Q847 44 825 35Q774 14 696-2Q618-18 528-22Q438-26 344-15Q250-4 167 28L39 193Q90 170 172.50 141.50Q255 113 351 90Q447 67 545.50 55Q644 43 727 53.50Q810 64 867 102.50Q924 141 937 219Q943 256 909.50 303Q876 350 805 381Q775 394 737.50 400.50Q700 407 663 410Q626 413 593 413.50Q560 414 537 415L529 470Q559 474 598.50 482Q638 490 673.50 503.50Q709 517 733.50 536Q758 555 760 581Q762 606 748 624Q734 642 713.50 653.50Q693 665 669 671.50Q645 678 626 681Q612 682 599.50 683.50Q587 685 575 685L418 144L372 111L272 666Q250 661 226.50 654.50Q203 648 179 640L192 697Q203 701 221.50 707Q240 713 264 717L252 782L279 823L302 722Q354 731 419 734.50Q484 738 549 734L587 853L614 823L587 728Q629 722 665.50 711Q702 700 729 683Q756 666 771 642.50Q786 619 785 589Q784 559 768 537Q752 515 726.50 498.50Q701 482 668 471Q635 460 599 451Q666 450 733.50 437.50Q801 425 853 398Q878 385 902.50 369.50Q927 354 947 334.50Q967 315 980.50 290Q994 265 998 232Q1000 210 988 177Q976 144 948 113Q956 79 976 59Q996 39 1024.50 34.50Q1053 30 1088 43Q1123 56 1160 88M398 262L534 689Q481 691 425.50 688Q370 685 310 674L398 262Z"  horiz-adv-x="1307" vert-adv-y="1000"  />

      
      <glyph glyph-name="uni16" unicode="&#x16;" d="M1160 88Q1155 133 1188 188Q1214 233 1246.50 255Q1279 277 1300 265Q1317 255 1318.50 233Q1320 211 1311 184Q1302 157 1285.50 129Q1269 101 1249.50 80.50Q1230 60 1211 51.50Q1192 43 1177 54L1175 54Q1139 20 1099 4Q1059-12 1022-10Q985-8 953.50 13Q922 34 902 74Q885 63 866 53.50Q847 44 825 35Q774 14 696-2Q618-18 528-22Q438-26 344-15Q250-4 167 28L39 193Q90 170 172.50 141.50Q255 113 351 90Q447 67 545.50 55Q644 43 727 53.50Q810 64 867 102.50Q924 141 937 219Q943 256 909.50 303Q876 350 805 381Q775 394 737.50 400.50Q700 407 663 410Q626 413 593 413.50Q560 414 537 415L529 470Q559 474 598.50 482Q638 490 673.50 503.50Q709 517 733.50 536Q758 555 760 581Q762 606 748 624Q734 642 713.50 653.50Q693 665 669 671.50Q645 678 626 681Q612 682 599.50 683.50Q587 685 575 685L418 144L372 111L272 666Q250 661 226.50 654.50Q203 648 179 640L192 697Q203 701 221.50 707Q240 713 264 717L252 782L279 823L302 722Q354 731 419 734.50Q484 738 549 734L587 853L614 823L587 728Q629 722 665.50 711Q702 700 729 683Q756 666 771 642.50Q786 619 785 589Q784 559 768 537Q752 515 726.50 498.50Q701 482 668 471Q635 460 599 451Q666 450 733.50 437.50Q801 425 853 398Q878 385 902.50 369.50Q927 354 947 334.50Q967 315 980.50 290Q994 265 998 232Q1000 210 988 177Q976 144 948 113Q956 79 976 59Q996 39 1024.50 34.50Q1053 30 1088 43Q1123 56 1160 88M398 262L534 689Q481 691 425.50 688Q370 685 310 674L398 262Z"  horiz-adv-x="1307" vert-adv-y="1000"  />

      
      <glyph glyph-name="uni17" unicode="&#x17;" d="M1160 88Q1155 133 1188 188Q1214 233 1246.50 255Q1279 277 1300 265Q1317 255 1318.50 233Q1320 211 1311 184Q1302 157 1285.50 129Q1269 101 1249.50 80.50Q1230 60 1211 51.50Q1192 43 1177 54L1175 54Q1139 20 1099 4Q1059-12 1022-10Q985-8 953.50 13Q922 34 902 74Q885 63 866 53.50Q847 44 825 35Q774 14 696-2Q618-18 528-22Q438-26 344-15Q250-4 167 28L39 193Q90 170 172.50 141.50Q255 113 351 90Q447 67 545.50 55Q644 43 727 53.50Q810 64 867 102.50Q924 141 937 219Q943 256 909.50 303Q876 350 805 381Q775 394 737.50 400.50Q700 407 663 410Q626 413 593 413.50Q560 414 537 415L529 470Q559 474 598.50 482Q638 490 673.50 503.50Q709 517 733.50 536Q758 555 760 581Q762 606 748 624Q734 642 713.50 653.50Q693 665 669 671.50Q645 678 626 681Q612 682 599.50 683.50Q587 685 575 685L418 144L372 111L272 666Q250 661 226.50 654.50Q203 648 179 640L192 697Q203 701 221.50 707Q240 713 264 717L252 782L279 823L302 722Q354 731 419 734.50Q484 738 549 734L587 853L614 823L587 728Q629 722 665.50 711Q702 700 729 683Q756 666 771 642.50Q786 619 785 589Q784 559 768 537Q752 515 726.50 498.50Q701 482 668 471Q635 460 599 451Q666 450 733.50 437.50Q801 425 853 398Q878 385 902.50 369.50Q927 354 947 334.50Q967 315 980.50 290Q994 265 998 232Q1000 210 988 177Q976 144 948 113Q956 79 976 59Q996 39 1024.50 34.50Q1053 30 1088 43Q1123 56 1160 88M398 262L534 689Q481 691 425.50 688Q370 685 310 674L398 262Z"  horiz-adv-x="1307" vert-adv-y="1000"  />

      
      <glyph glyph-name="uni18" unicode="&#x18;" d="M1160 88Q1155 133 1188 188Q1214 233 1246.50 255Q1279 277 1300 265Q1317 255 1318.50 233Q1320 211 1311 184Q1302 157 1285.50 129Q1269 101 1249.50 80.50Q1230 60 1211 51.50Q1192 43 1177 54L1175 54Q1139 20 1099 4Q1059-12 1022-10Q985-8 953.50 13Q922 34 902 74Q885 63 866 53.50Q847 44 825 35Q774 14 696-2Q618-18 528-22Q438-26 344-15Q250-4 167 28L39 193Q90 170 172.50 141.50Q255 113 351 90Q447 67 545.50 55Q644 43 727 53.50Q810 64 867 102.50Q924 141 937 219Q943 256 909.50 303Q876 350 805 381Q775 394 737.50 400.50Q700 407 663 410Q626 413 593 413.50Q560 414 537 415L529 470Q559 474 598.50 482Q638 490 673.50 503.50Q709 517 733.50 536Q758 555 760 581Q762 606 748 624Q734 642 713.50 653.50Q693 665 669 671.50Q645 678 626 681Q612 682 599.50 683.50Q587 685 575 685L418 144L372 111L272 666Q250 661 226.50 654.50Q203 648 179 640L192 697Q203 701 221.50 707Q240 713 264 717L252 782L279 823L302 722Q354 731 419 734.50Q484 738 549 734L587 853L614 823L587 728Q629 722 665.50 711Q702 700 729 683Q756 666 771 642.50Q786 619 785 589Q784 559 768 537Q752 515 726.50 498.50Q701 482 668 471Q635 460 599 451Q666 450 733.50 437.50Q801 425 853 398Q878 385 902.50 369.50Q927 354 947 334.50Q967 315 980.50 290Q994 265 998 232Q1000 210 988 177Q976 144 948 113Q956 79 976 59Q996 39 1024.50 34.50Q1053 30 1088 43Q1123 56 1160 88M398 262L534 689Q481 691 425.50 688Q370 685 310 674L398 262Z"  horiz-adv-x="1307" vert-adv-y="1000"  />

      
      <glyph glyph-name="uni4" unicode="&#x4;" d="M1160 88Q1155 133 1188 188Q1214 233 1246.50 255Q1279 277 1300 265Q1317 255 1318.50 233Q1320 211 1311 184Q1302 157 1285.50 129Q1269 101 1249.50 80.50Q1230 60 1211 51.50Q1192 43 1177 54L1175 54Q1139 20 1099 4Q1059-12 1022-10Q985-8 953.50 13Q922 34 902 74Q885 63 866 53.50Q847 44 825 35Q774 14 696-2Q618-18 528-22Q438-26 344-15Q250-4 167 28L39 193Q90 170 172.50 141.50Q255 113 351 90Q447 67 545.50 55Q644 43 727 53.50Q810 64 867 102.50Q924 141 937 219Q943 256 909.50 303Q876 350 805 381Q775 394 737.50 400.50Q700 407 663 410Q626 413 593 413.50Q560 414 537 415L529 470Q559 474 598.50 482Q638 490 673.50 503.50Q709 517 733.50 536Q758 555 760 581Q762 606 748 624Q734 642 713.50 653.50Q693 665 669 671.50Q645 678 626 681Q612 682 599.50 683.50Q587 685 575 685L418 144L372 111L272 666Q250 661 226.50 654.50Q203 648 179 640L192 697Q203 701 221.50 707Q240 713 264 717L252 782L279 823L302 722Q354 731 419 734.50Q484 738 549 734L587 853L614 823L587 728Q629 722 665.50 711Q702 700 729 683Q756 666 771 642.50Q786 619 785 589Q784 559 768 537Q752 515 726.50 498.50Q701 482 668 471Q635 460 599 451Q666 450 733.50 437.50Q801 425 853 398Q878 385 902.50 369.50Q927 354 947 334.50Q967 315 980.50 290Q994 265 998 232Q1000 210 988 177Q976 144 948 113Q956 79 976 59Q996 39 1024.50 34.50Q1053 30 1088 43Q1123 56 1160 88M398 262L534 689Q481 691 425.50 688Q370 685 310 674L398 262Z"  horiz-adv-x="1307" vert-adv-y="1000"  />

      
      <glyph glyph-name="uni21" unicode="&#x21;" d="M83 99L53 839L112 839L83 99M138 0L83 99L28 0L138 0Z"  horiz-adv-x="167" vert-adv-y="1000"  />

      
      <glyph glyph-name="uni22" unicode="&#x22;" d="M158 838L105 496L48 838L158 838M308 838L255 496L198 838L308 838Z"  horiz-adv-x="349" vert-adv-y="1000"  />

      
      <glyph glyph-name="uni24" unicode="&#x24;" d="M1160 88Q1155 133 1188 188Q1214 233 1246.50 255Q1279 277 1300 265Q1317 255 1318.50 233Q1320 211 1311 184Q1302 157 1285.50 129Q1269 101 1249.50 80.50Q1230 60 1211 51.50Q1192 43 1177 54L1175 54Q1139 20 1099 4Q1059-12 1022-10Q985-8 953.50 13Q922 34 902 74Q885 63 866 53.50Q847 44 825 35Q774 14 696-2Q618-18 528-22Q438-26 344-15Q250-4 167 28L39 193Q90 170 172.50 141.50Q255 113 351 90Q447 67 545.50 55Q644 43 727 53.50Q810 64 867 102.50Q924 141 937 219Q943 256 909.50 303Q876 350 805 381Q775 394 737.50 400.50Q700 407 663 410Q626 413 593 413.50Q560 414 537 415L529 470Q559 474 598.50 482Q638 490 673.50 503.50Q709 517 733.50 536Q758 555 760 581Q762 606 748 624Q734 642 713.50 653.50Q693 665 669 671.50Q645 678 626 681Q612 682 599.50 683.50Q587 685 575 685L418 144L372 111L272 666Q250 661 226.50 654.50Q203 648 179 640L192 697Q203 701 221.50 707Q240 713 264 717L252 782L279 823L302 722Q354 731 419 734.50Q484 738 549 734L587 853L614 823L587 728Q629 722 665.50 711Q702 700 729 683Q756 666 771 642.50Q786 619 785 589Q784 559 768 537Q752 515 726.50 498.50Q701 482 668 471Q635 460 599 451Q666 450 733.50 437.50Q801 425 853 398Q878 385 902.50 369.50Q927 354 947 334.50Q967 315 980.50 290Q994 265 998 232Q1000 210 988 177Q976 144 948 113Q956 79 976 59Q996 39 1024.50 34.50Q1053 30 1088 43Q1123 56 1160 88M398 262L534 689Q481 691 425.50 688Q370 685 310 674L398 262Z"  horiz-adv-x="1307" vert-adv-y="1000"  />

      
      <glyph glyph-name="uni26" unicode="&#x26;" d="M1160 88Q1155 133 1188 188Q1214 233 1246.50 255Q1279 277 1300 265Q1317 255 1318.50 233Q1320 211 1311 184Q1302 157 1285.50 129Q1269 101 1249.50 80.50Q1230 60 1211 51.50Q1192 43 1177 54L1175 54Q1139 20 1099 4Q1059-12 1022-10Q985-8 953.50 13Q922 34 902 74Q885 63 866 53.50Q847 44 825 35Q774 14 696-2Q618-18 528-22Q438-26 344-15Q250-4 167 28L39 193Q90 170 172.50 141.50Q255 113 351 90Q447 67 545.50 55Q644 43 727 53.50Q810 64 867 102.50Q924 141 937 219Q943 256 909.50 303Q876 350 805 381Q775 394 737.50 400.50Q700 407 663 410Q626 413 593 413.50Q560 414 537 415L529 470Q559 474 598.50 482Q638 490 673.50 503.50Q709 517 733.50 536Q758 555 760 581Q762 606 748 624Q734 642 713.50 653.50Q693 665 669 671.50Q645 678 626 681Q612 682 599.50 683.50Q587 685 575 685L418 144L372 111L272 666Q250 661 226.50 654.50Q203 648 179 640L192 697Q203 701 221.50 707Q240 713 264 717L252 782L279 823L302 722Q354 731 419 734.50Q484 738 549 734L587 853L614 823L587 728Q629 722 665.50 711Q702 700 729 683Q756 666 771 642.50Q786 619 785 589Q784 559 768 537Q752 515 726.50 498.50Q701 482 668 471Q635 460 599 451Q666 450 733.50 437.50Q801 425 853 398Q878 385 902.50 369.50Q927 354 947 334.50Q967 315 980.50 290Q994 265 998 232Q1000 210 988 177Q976 144 948 113Q956 79 976 59Q996 39 1024.50 34.50Q1053 30 1088 43Q1123 56 1160 88M398 262L534 689Q481 691 425.50 688Q370 685 310 674L398 262Z"  horiz-adv-x="1307" vert-adv-y="1000"  />

      
      <glyph glyph-name="uni27" unicode="&#x27;" d="M1160 88Q1155 133 1188 188Q1214 233 1246.50 255Q1279 277 1300 265Q1317 255 1318.50 233Q1320 211 1311 184Q1302 157 1285.50 129Q1269 101 1249.50 80.50Q1230 60 1211 51.50Q1192 43 1177 54L1175 54Q1139 20 1099 4Q1059-12 1022-10Q985-8 953.50 13Q922 34 902 74Q885 63 866 53.50Q847 44 825 35Q774 14 696-2Q618-18 528-22Q438-26 344-15Q250-4 167 28L39 193Q90 170 172.50 141.50Q255 113 351 90Q447 67 545.50 55Q644 43 727 53.50Q810 64 867 102.50Q924 141 937 219Q943 256 909.50 303Q876 350 805 381Q775 394 737.50 400.50Q700 407 663 410Q626 413 593 413.50Q560 414 537 415L529 470Q559 474 598.50 482Q638 490 673.50 503.50Q709 517 733.50 536Q758 555 760 581Q762 606 748 624Q734 642 713.50 653.50Q693 665 669 671.50Q645 678 626 681Q612 682 599.50 683.50Q587 685 575 685L418 144L372 111L272 666Q250 661 226.50 654.50Q203 648 179 640L192 697Q203 701 221.50 707Q240 713 264 717L252 782L279 823L302 722Q354 731 419 734.50Q484 738 549 734L587 853L614 823L587 728Q629 722 665.50 711Q702 700 729 683Q756 666 771 642.50Q786 619 785 589Q784 559 768 537Q752 515 726.50 498.50Q701 482 668 471Q635 460 599 451Q666 450 733.50 437.50Q801 425 853 398Q878 385 902.50 369.50Q927 354 947 334.50Q967 315 980.50 290Q994 265 998 232Q1000 210 988 177Q976 144 948 113Q956 79 976 59Q996 39 1024.50 34.50Q1053 30 1088 43Q1123 56 1160 88M398 262L534 689Q481 691 425.50 688Q370 685 310 674L398 262Z"  horiz-adv-x="1307" vert-adv-y="1000"  />

      
      <glyph glyph-name="uni28" unicode="&#x28;" d="M134 863L193 841Q124 634 116 424Q108 214 164 2Q82 207 71 427.50Q60 648 134 863Z"  horiz-adv-x="273" vert-adv-y="1000"  />

      
      <glyph glyph-name="uni29" unicode="&#x29;" d="M121-23L62-1Q200 414 91 838Q174 633 184 412.50Q194 192 121-23Z"  horiz-adv-x="263" vert-adv-y="1000"  />

      
      <glyph glyph-name="uni2a" unicode="&#x2a;" d="M271 715L212 727L273 758L210 746L249 786L197 823L171 774L163 838L153 772L125 823L74 786L113 746L49 758L111 727L52 715L72 655L122 681L92 624L136 670L128 615L191 614L184 672L231 624L201 681L250 655L271 715Z"  horiz-adv-x="226" vert-adv-y="1000"  />

      
      <glyph glyph-name="uni2b" unicode="&#x2b;" d="M350 171L291 171L304 403L55 417L306 432L320 687L335 434L571 447L571 388L337 401L350 171Z"  horiz-adv-x="598" vert-adv-y="1000"  />

      
      <glyph glyph-name="uni2c" unicode="&#x2c;" d="M167 48L38-173L84-1L57 48L167 48Z"  horiz-adv-x="203" vert-adv-y="1000"  />

      
      <glyph glyph-name="uni2d" unicode="&#x2d;" d="M431 445L431 386L47 415L431 445Z"  horiz-adv-x="478" vert-adv-y="1000"  />

      
      <glyph glyph-name="uni2e" unicode="&#x2e;" d="M147 0L92 99L37 0L147 0Z"  horiz-adv-x="185" vert-adv-y="1000"  />

      
      <glyph glyph-name="uni2f" unicode="&#x2f;" d="M1160 88Q1155 133 1188 188Q1214 233 1246.50 255Q1279 277 1300 265Q1317 255 1318.50 233Q1320 211 1311 184Q1302 157 1285.50 129Q1269 101 1249.50 80.50Q1230 60 1211 51.50Q1192 43 1177 54L1175 54Q1139 20 1099 4Q1059-12 1022-10Q985-8 953.50 13Q922 34 902 74Q885 63 866 53.50Q847 44 825 35Q774 14 696-2Q618-18 528-22Q438-26 344-15Q250-4 167 28L39 193Q90 170 172.50 141.50Q255 113 351 90Q447 67 545.50 55Q644 43 727 53.50Q810 64 867 102.50Q924 141 937 219Q943 256 909.50 303Q876 350 805 381Q775 394 737.50 400.50Q700 407 663 410Q626 413 593 413.50Q560 414 537 415L529 470Q559 474 598.50 482Q638 490 673.50 503.50Q709 517 733.50 536Q758 555 760 581Q762 606 748 624Q734 642 713.50 653.50Q693 665 669 671.50Q645 678 626 681Q612 682 599.50 683.50Q587 685 575 685L418 144L372 111L272 666Q250 661 226.50 654.50Q203 648 179 640L192 697Q203 701 221.50 707Q240 713 264 717L252 782L279 823L302 722Q354 731 419 734.50Q484 738 549 734L587 853L614 823L587 728Q629 722 665.50 711Q702 700 729 683Q756 666 771 642.50Q786 619 785 589Q784 559 768 537Q752 515 726.50 498.50Q701 482 668 471Q635 460 599 451Q666 450 733.50 437.50Q801 425 853 398Q878 385 902.50 369.50Q927 354 947 334.50Q967 315 980.50 290Q994 265 998 232Q1000 210 988 177Q976 144 948 113Q956 79 976 59Q996 39 1024.50 34.50Q1053 30 1088 43Q1123 56 1160 88M398 262L534 689Q481 691 425.50 688Q370 685 310 674L398 262Z"  horiz-adv-x="1307" vert-adv-y="1000"  />

      
      <glyph glyph-name="uni30" unicode="&#x30;" d="M497 856Q407 856 327.50 821.50Q248 787 189 728Q130 669 95.50 589.50Q61 510 61 420Q61 330 95.50 251Q130 172 189 112.50Q248 53 327.50 19Q407-15 497-15Q587-15 666 19Q745 53 804.50 112.50Q864 172 898 251Q932 330 932 420Q932 510 898 589.50Q864 669 804.50 728Q745 787 666 821.50Q587 856 497 856M497 839L485 798Q539 798 607 770Q675 742 735 691.50Q795 641 835.50 571.50Q876 502 876 420Q876 304 835 224Q794 144 735.50 94.50Q677 45 611.50 22.50Q546 0 497 0L512 49Q452 49 384 74Q316 99 258 146.50Q200 194 162 263Q124 332 124 420Q124 538 163 618.50Q202 699 259 748Q316 797 380.50 818Q445 839 497 839Z"  horiz-adv-x="986" vert-adv-y="1000"  />

      
      <glyph glyph-name="uni32" unicode="&#x32;" d="M131 674L81 693Q86 725 103 754.50Q120 784 146 807Q172 830 204 844Q236 858 270 858Q296 858 325.50 847Q355 836 379 812Q403 788 416.50 750.50Q430 713 424 659Q420 620 391.50 579.50Q363 539 324.50 493.50Q286 448 244.50 396.50Q203 345 173.50 285.50Q144 226 132.50 157Q121 88 143 6L510 26L510-31L148-8Q151-18 153.50-28Q156-38 160-48Q155-38 150.50-28Q146-18 142-8L10 0L135 6Q105 85 110 155.50Q115 226 141 288.50Q167 351 205.50 405.50Q244 460 280.50 507.50Q317 555 343.50 594.50Q370 634 372 667Q375 718 347.50 751Q320 784 280.50 789.50Q241 795 199 768.50Q157 742 131 674Z"  horiz-adv-x="526" vert-adv-y="1000"  />

      
      <glyph glyph-name="uni33" unicode="&#x33;" d="M111 17L20 149L152 55L138 42Q164 28 199 19Q234 10 285 10Q328 10 364 29Q400 48 425.50 78.50Q451 109 465.50 148.50Q480 188 480 230Q480 269 465.50 303.50Q451 338 417.50 363.50Q384 389 330 404Q276 419 197 419L205 483Q256 483 299.50 497Q343 511 375.50 535.50Q408 560 426.50 593Q445 626 445 663Q445 700 432 734.50Q419 769 397 795Q375 821 346 836.50Q317 852 285 852Q238 852 202 840.50Q166 829 132 808Q161 839 201 857Q241 875 287 875Q331 875 369.50 858.50Q408 842 437 813Q466 784 482.50 745.50Q499 707 499 663Q499 597 462.50 544.50Q426 492 369 468Q442 442 489.50 377Q537 312 537 230Q537 178 517 132Q497 86 462.50 52Q428 18 382-2Q336-22 284-22Q240-22 200-7Q160 8 128 33L111 17Z"  horiz-adv-x="570" vert-adv-y="1000"  />

      
      <glyph glyph-name="uni34" unicode="&#x34;" d="M358 396L539 386L359 373L372 0L313 0L326 371L95 354L73 311L21 340L345 846L358 396M342 840L123 410L327 398L342 840Z"  horiz-adv-x="566" vert-adv-y="1000"  />

      
      <glyph glyph-name="uni35" unicode="&#x35;" d="M493 838L493 784L192 802L176 460Q233 485 289.50 478Q346 471 391.50 439Q437 407 465 354Q493 301 493 235Q493 176 468.50 127Q444 78 404.50 44Q365 10 315.50-5.50Q266-21 216.50-11Q167-1 122 36.50Q77 74 47 147Q83 89 126 58.50Q169 28 213.50 20Q258 12 299.50 25.50Q341 39 373 68Q405 97 424.50 140Q444 183 444 235Q444 273 423 313.50Q402 354 365.50 381Q329 408 279.50 413.50Q230 419 173 387L166 242L158 377Q154 374 149 371.50Q144 369 140 365L99 409Q112 422 126 431.50Q140 441 154 449L132 806L47 811L131 816L130 838L194 838L193 820L493 838Z"  horiz-adv-x="551" vert-adv-y="1000"  />

      
      <glyph glyph-name="uni36" unicode="&#x36;" d="M255-16Q194 5 156.50 42Q119 79 101 128Q83 177 83 234Q83 291 97 352Q86 347 75 342Q64 337 52 331L31 389Q76 408 117 420Q139 483 173 545.50Q207 608 248.50 663.50Q290 719 338 764.50Q386 810 435 839L472 793Q364 720 284.50 624.50Q205 529 161 430Q264 452 334 432Q404 412 442 367Q480 322 487 262Q494 202 470.50 144.50Q447 87 393 41.50Q339-4 256-19Q335 10 381 58.50Q427 107 442.50 160Q458 213 445 263.50Q432 314 392.50 347.50Q353 381 288.50 390Q224 399 138 369Q118 308 114 250Q110 192 123.50 141.50Q137 91 169.50 50.50Q202 10 255-16Z"  horiz-adv-x="539" vert-adv-y="1000"  />

      
      <glyph glyph-name="uni37" unicode="&#x37;" d="M313 468L384 475L384 420L300 429L151-10L96 10L268 432L123 448L281 465L431 831L37 803L37 863L435 840L458 896L439 840L506 836L436 831L313 468Z"  horiz-adv-x="530" vert-adv-y="1000"  />

      
      <glyph glyph-name="uni38" unicode="&#x38;" d="M284 863Q323 863 357.50 848Q392 833 418 807Q444 781 459 746.50Q474 712 474 673Q474 637 461.50 605.50Q449 574 427.50 549.50Q406 525 376.50 508.50Q347 492 314 486Q360 480 400.50 457.50Q441 435 471 401Q501 367 518 324Q535 281 535 233Q535 180 515 133.50Q495 87 460 52.50Q425 18 378.50-2Q332-22 280-22Q227-22 180.50-2Q134 18 99.50 52.50Q65 87 45 133.50Q25 180 25 233Q25 282 42.50 325.50Q60 369 90 402.50Q120 436 161 458Q202 480 250 486Q183 498 138.50 550.50Q94 603 94 673Q94 712 109 746.50Q124 781 149.50 807Q175 833 210 848Q245 863 284 863M280 478L287 454Q255 454 215.50 437.50Q176 421 141 392Q106 363 82 322Q58 281 58 233Q58 165 82 118Q106 71 140.50 42Q175 13 213 0Q251-13 280-13L271 15Q306 15 346 29.50Q386 44 420 72Q454 100 476 140.50Q498 181 498 233Q498 302 475 349Q452 396 419 424.50Q386 453 348 465.50Q310 478 280 478M284 855L289 837Q265 837 235.50 825Q206 813 180 791Q154 769 136.50 739Q119 709 119 673Q119 622 137 587.50Q155 553 180.50 531Q206 509 234.50 499.50Q263 490 284 490L277 511Q303 511 333 522Q363 533 388 553.50Q413 574 429.50 604Q446 634 446 673Q446 724 429 759Q412 794 387 815.50Q362 837 334 846Q306 855 284 855Z"  horiz-adv-x="567" vert-adv-y="1000"  />

      
      <glyph glyph-name="uni39" unicode="&#x39;" d="M265 836Q326 815 363.50 778Q401 741 419 692Q437 643 437 586Q437 529 423 468Q434 473 445 478Q456 483 468 489L489 431Q444 412 403 400Q381 337 347 274.50Q313 212 271.50 156.50Q230 101 182 55.50Q134 10 85-19L48 27Q156 100 235.50 195.50Q315 291 359 390Q256 368 186 388Q116 408 78 453Q40 498 33 558Q26 618 49.50 675.50Q73 733 127 778.50Q181 824 264 839Q185 810 139 761.50Q93 713 77.50 660Q62 607 75 556.50Q88 506 127.50 472.50Q167 439 231.50 430Q296 421 382 451Q402 512 406 570Q410 628 396.50 678.50Q383 729 350.50 769.50Q318 810 265 836Z"  horiz-adv-x="539" vert-adv-y="1000"  />

      
      <glyph glyph-name="uni3a" unicode="&#x3a;" d="M142 0L87 99L32 0L142 0M141 730L86 631L31 730L141 730Z"  horiz-adv-x="170" vert-adv-y="1000"  />

      
      <glyph glyph-name="uni3b" unicode="&#x3b;" d="M164 49L35-172L81 0L54 49L164 49M164 729L109 630L54 729L164 729Z"  horiz-adv-x="197" vert-adv-y="1000"  />

      
      <glyph glyph-name="uni3c" unicode="&#x3c;" d="M1160 88Q1155 133 1188 188Q1214 233 1246.50 255Q1279 277 1300 265Q1317 255 1318.50 233Q1320 211 1311 184Q1302 157 1285.50 129Q1269 101 1249.50 80.50Q1230 60 1211 51.50Q1192 43 1177 54L1175 54Q1139 20 1099 4Q1059-12 1022-10Q985-8 953.50 13Q922 34 902 74Q885 63 866 53.50Q847 44 825 35Q774 14 696-2Q618-18 528-22Q438-26 344-15Q250-4 167 28L39 193Q90 170 172.50 141.50Q255 113 351 90Q447 67 545.50 55Q644 43 727 53.50Q810 64 867 102.50Q924 141 937 219Q943 256 909.50 303Q876 350 805 381Q775 394 737.50 400.50Q700 407 663 410Q626 413 593 413.50Q560 414 537 415L529 470Q559 474 598.50 482Q638 490 673.50 503.50Q709 517 733.50 536Q758 555 760 581Q762 606 748 624Q734 642 713.50 653.50Q693 665 669 671.50Q645 678 626 681Q612 682 599.50 683.50Q587 685 575 685L418 144L372 111L272 666Q250 661 226.50 654.50Q203 648 179 640L192 697Q203 701 221.50 707Q240 713 264 717L252 782L279 823L302 722Q354 731 419 734.50Q484 738 549 734L587 853L614 823L587 728Q629 722 665.50 711Q702 700 729 683Q756 666 771 642.50Q786 619 785 589Q784 559 768 537Q752 515 726.50 498.50Q701 482 668 471Q635 460 599 451Q666 450 733.50 437.50Q801 425 853 398Q878 385 902.50 369.50Q927 354 947 334.50Q967 315 980.50 290Q994 265 998 232Q1000 210 988 177Q976 144 948 113Q956 79 976 59Q996 39 1024.50 34.50Q1053 30 1088 43Q1123 56 1160 88M398 262L534 689Q481 691 425.50 688Q370 685 310 674L398 262Z"  horiz-adv-x="1307" vert-adv-y="1000"  />

      
      <glyph glyph-name="uni3e" unicode="&#x3e;" d="M1160 88Q1155 133 1188 188Q1214 233 1246.50 255Q1279 277 1300 265Q1317 255 1318.50 233Q1320 211 1311 184Q1302 157 1285.50 129Q1269 101 1249.50 80.50Q1230 60 1211 51.50Q1192 43 1177 54L1175 54Q1139 20 1099 4Q1059-12 1022-10Q985-8 953.50 13Q922 34 902 74Q885 63 866 53.50Q847 44 825 35Q774 14 696-2Q618-18 528-22Q438-26 344-15Q250-4 167 28L39 193Q90 170 172.50 141.50Q255 113 351 90Q447 67 545.50 55Q644 43 727 53.50Q810 64 867 102.50Q924 141 937 219Q943 256 909.50 303Q876 350 805 381Q775 394 737.50 400.50Q700 407 663 410Q626 413 593 413.50Q560 414 537 415L529 470Q559 474 598.50 482Q638 490 673.50 503.50Q709 517 733.50 536Q758 555 760 581Q762 606 748 624Q734 642 713.50 653.50Q693 665 669 671.50Q645 678 626 681Q612 682 599.50 683.50Q587 685 575 685L418 144L372 111L272 666Q250 661 226.50 654.50Q203 648 179 640L192 697Q203 701 221.50 707Q240 713 264 717L252 782L279 823L302 722Q354 731 419 734.50Q484 738 549 734L587 853L614 823L587 728Q629 722 665.50 711Q702 700 729 683Q756 666 771 642.50Q786 619 785 589Q784 559 768 537Q752 515 726.50 498.50Q701 482 668 471Q635 460 599 451Q666 450 733.50 437.50Q801 425 853 398Q878 385 902.50 369.50Q927 354 947 334.50Q967 315 980.50 290Q994 265 998 232Q1000 210 988 177Q976 144 948 113Q956 79 976 59Q996 39 1024.50 34.50Q1053 30 1088 43Q1123 56 1160 88M398 262L534 689Q481 691 425.50 688Q370 685 310 674L398 262Z"  horiz-adv-x="1307" vert-adv-y="1000"  />

      
      <glyph glyph-name="uni3f" unicode="&#x3f;" d="M77 654L20 669Q26 701 39 731.50Q52 762 72 786Q92 810 121 824.50Q150 839 187 839Q236 839 270 819.50Q304 800 323 769.50Q342 739 346.50 701.50Q351 664 341 628Q333 600 320 579.50Q307 559 292 535.50Q277 512 260.50 481Q244 450 229.50 400.50Q215 351 204 278Q193 205 188 98L242 1L132 1L186 98Q178 202 181 275Q184 348 193 400Q202 452 216 486Q230 520 244 545Q258 570 270 590Q282 610 288 633Q300 680 291 712.50Q282 745 260.50 762.50Q239 780 210 783Q181 786 153.50 772.50Q126 759 104.50 729.50Q83 700 77 654Z"  horiz-adv-x="381" vert-adv-y="1000"  />

      
      <glyph glyph-name="uni40" unicode="&#x40;" d="M1160 88Q1155 133 1188 188Q1214 233 1246.50 255Q1279 277 1300 265Q1317 255 1318.50 233Q1320 211 1311 184Q1302 157 1285.50 129Q1269 101 1249.50 80.50Q1230 60 1211 51.50Q1192 43 1177 54L1175 54Q1139 20 1099 4Q1059-12 1022-10Q985-8 953.50 13Q922 34 902 74Q885 63 866 53.50Q847 44 825 35Q774 14 696-2Q618-18 528-22Q438-26 344-15Q250-4 167 28L39 193Q90 170 172.50 141.50Q255 113 351 90Q447 67 545.50 55Q644 43 727 53.50Q810 64 867 102.50Q924 141 937 219Q943 256 909.50 303Q876 350 805 381Q775 394 737.50 400.50Q700 407 663 410Q626 413 593 413.50Q560 414 537 415L529 470Q559 474 598.50 482Q638 490 673.50 503.50Q709 517 733.50 536Q758 555 760 581Q762 606 748 624Q734 642 713.50 653.50Q693 665 669 671.50Q645 678 626 681Q612 682 599.50 683.50Q587 685 575 685L418 144L372 111L272 666Q250 661 226.50 654.50Q203 648 179 640L192 697Q203 701 221.50 707Q240 713 264 717L252 782L279 823L302 722Q354 731 419 734.50Q484 738 549 734L587 853L614 823L587 728Q629 722 665.50 711Q702 700 729 683Q756 666 771 642.50Q786 619 785 589Q784 559 768 537Q752 515 726.50 498.50Q701 482 668 471Q635 460 599 451Q666 450 733.50 437.50Q801 425 853 398Q878 385 902.50 369.50Q927 354 947 334.50Q967 315 980.50 290Q994 265 998 232Q1000 210 988 177Q976 144 948 113Q956 79 976 59Q996 39 1024.50 34.50Q1053 30 1088 43Q1123 56 1160 88M398 262L534 689Q481 691 425.50 688Q370 685 310 674L398 262Z"  horiz-adv-x="1307" vert-adv-y="1000"  />

      
      <glyph glyph-name="uni41" unicode="&#x41;" d="M1160 88Q1155 133 1188 188Q1214 233 1246.50 255Q1279 277 1300 265Q1317 255 1318.50 233Q1320 211 1311 184Q1302 157 1285.50 129Q1269 101 1249.50 80.50Q1230 60 1211 51.50Q1192 43 1177 54L1175 54Q1139 20 1099 4Q1059-12 1022-10Q985-8 953.50 13Q922 34 902 74Q885 63 866 53.50Q847 44 825 35Q774 14 696-2Q618-18 528-22Q438-26 344-15Q250-4 167 28L39 193Q90 170 172.50 141.50Q255 113 351 90Q447 67 545.50 55Q644 43 727 53.50Q810 64 867 102.50Q924 141 937 219Q943 256 909.50 303Q876 350 805 381Q775 394 737.50 400.50Q700 407 663 410Q626 413 593 413.50Q560 414 537 415L529 470Q559 474 598.50 482Q638 490 673.50 503.50Q709 517 733.50 536Q758 555 760 581Q762 606 748 624Q734 642 713.50 653.50Q693 665 669 671.50Q645 678 626 681Q612 682 599.50 683.50Q587 685 575 685L418 144L372 111L272 666Q250 661 226.50 654.50Q203 648 179 640L192 697Q203 701 221.50 707Q240 713 264 717L252 782L279 823L302 722Q354 731 419 734.50Q484 738 549 734L587 853L614 823L587 728Q629 722 665.50 711Q702 700 729 683Q756 666 771 642.50Q786 619 785 589Q784 559 768 537Q752 515 726.50 498.50Q701 482 668 471Q635 460 599 451Q666 450 733.50 437.50Q801 425 853 398Q878 385 902.50 369.50Q927 354 947 334.50Q967 315 980.50 290Q994 265 998 232Q1000 210 988 177Q976 144 948 113Q956 79 976 59Q996 39 1024.50 34.50Q1053 30 1088 43Q1123 56 1160 88M398 262L534 689Q481 691 425.50 688Q370 685 310 674L398 262Z"  horiz-adv-x="1307" vert-adv-y="1000"  />

      
      <glyph glyph-name="uni42" unicode="&#x42;" d="M1160 88Q1155 133 1188 188Q1214 233 1246.50 255Q1279 277 1300 265Q1317 255 1318.50 233Q1320 211 1311 184Q1302 157 1285.50 129Q1269 101 1249.50 80.50Q1230 60 1211 51.50Q1192 43 1177 54L1175 54Q1139 20 1099 4Q1059-12 1022-10Q985-8 953.50 13Q922 34 902 74Q885 63 866 53.50Q847 44 825 35Q774 14 696-2Q618-18 528-22Q438-26 344-15Q250-4 167 28L39 193Q90 170 172.50 141.50Q255 113 351 90Q447 67 545.50 55Q644 43 727 53.50Q810 64 867 102.50Q924 141 937 219Q943 256 909.50 303Q876 350 805 381Q775 394 737.50 400.50Q700 407 663 410Q626 413 593 413.50Q560 414 537 415L529 470Q559 474 598.50 482Q638 490 673.50 503.50Q709 517 733.50 536Q758 555 760 581Q762 606 748 624Q734 642 713.50 653.50Q693 665 669 671.50Q645 678 626 681Q612 682 599.50 683.50Q587 685 575 685L418 144L372 111L272 666Q250 661 226.50 654.50Q203 648 179 640L192 697Q203 701 221.50 707Q240 713 264 717L252 782L279 823L302 722Q354 731 419 734.50Q484 738 549 734L587 853L614 823L587 728Q629 722 665.50 711Q702 700 729 683Q756 666 771 642.50Q786 619 785 589Q784 559 768 537Q752 515 726.50 498.50Q701 482 668 471Q635 460 599 451Q666 450 733.50 437.50Q801 425 853 398Q878 385 902.50 369.50Q927 354 947 334.50Q967 315 980.50 290Q994 265 998 232Q1000 210 988 177Q976 144 948 113Q956 79 976 59Q996 39 1024.50 34.50Q1053 30 1088 43Q1123 56 1160 88M398 262L534 689Q481 691 425.50 688Q370 685 310 674L398 262Z"  horiz-adv-x="1307" vert-adv-y="1000"  />

      
      <glyph glyph-name="uni43" unicode="&#x43;" d="M1160 88Q1155 133 1188 188Q1214 233 1246.50 255Q1279 277 1300 265Q1317 255 1318.50 233Q1320 211 1311 184Q1302 157 1285.50 129Q1269 101 1249.50 80.50Q1230 60 1211 51.50Q1192 43 1177 54L1175 54Q1139 20 1099 4Q1059-12 1022-10Q985-8 953.50 13Q922 34 902 74Q885 63 866 53.50Q847 44 825 35Q774 14 696-2Q618-18 528-22Q438-26 344-15Q250-4 167 28L39 193Q90 170 172.50 141.50Q255 113 351 90Q447 67 545.50 55Q644 43 727 53.50Q810 64 867 102.50Q924 141 937 219Q943 256 909.50 303Q876 350 805 381Q775 394 737.50 400.50Q700 407 663 410Q626 413 593 413.50Q560 414 537 415L529 470Q559 474 598.50 482Q638 490 673.50 503.50Q709 517 733.50 536Q758 555 760 581Q762 606 748 624Q734 642 713.50 653.50Q693 665 669 671.50Q645 678 626 681Q612 682 599.50 683.50Q587 685 575 685L418 144L372 111L272 666Q250 661 226.50 654.50Q203 648 179 640L192 697Q203 701 221.50 707Q240 713 264 717L252 782L279 823L302 722Q354 731 419 734.50Q484 738 549 734L587 853L614 823L587 728Q629 722 665.50 711Q702 700 729 683Q756 666 771 642.50Q786 619 785 589Q784 559 768 537Q752 515 726.50 498.50Q701 482 668 471Q635 460 599 451Q666 450 733.50 437.50Q801 425 853 398Q878 385 902.50 369.50Q927 354 947 334.50Q967 315 980.50 290Q994 265 998 232Q1000 210 988 177Q976 144 948 113Q956 79 976 59Q996 39 1024.50 34.50Q1053 30 1088 43Q1123 56 1160 88M398 262L534 689Q481 691 425.50 688Q370 685 310 674L398 262Z"  horiz-adv-x="1307" vert-adv-y="1000"  />

      
      <glyph glyph-name="uni44" unicode="&#x44;" d="M1160 88Q1155 133 1188 188Q1214 233 1246.50 255Q1279 277 1300 265Q1317 255 1318.50 233Q1320 211 1311 184Q1302 157 1285.50 129Q1269 101 1249.50 80.50Q1230 60 1211 51.50Q1192 43 1177 54L1175 54Q1139 20 1099 4Q1059-12 1022-10Q985-8 953.50 13Q922 34 902 74Q885 63 866 53.50Q847 44 825 35Q774 14 696-2Q618-18 528-22Q438-26 344-15Q250-4 167 28L39 193Q90 170 172.50 141.50Q255 113 351 90Q447 67 545.50 55Q644 43 727 53.50Q810 64 867 102.50Q924 141 937 219Q943 256 909.50 303Q876 350 805 381Q775 394 737.50 400.50Q700 407 663 410Q626 413 593 413.50Q560 414 537 415L529 470Q559 474 598.50 482Q638 490 673.50 503.50Q709 517 733.50 536Q758 555 760 581Q762 606 748 624Q734 642 713.50 653.50Q693 665 669 671.50Q645 678 626 681Q612 682 599.50 683.50Q587 685 575 685L418 144L372 111L272 666Q250 661 226.50 654.50Q203 648 179 640L192 697Q203 701 221.50 707Q240 713 264 717L252 782L279 823L302 722Q354 731 419 734.50Q484 738 549 734L587 853L614 823L587 728Q629 722 665.50 711Q702 700 729 683Q756 666 771 642.50Q786 619 785 589Q784 559 768 537Q752 515 726.50 498.50Q701 482 668 471Q635 460 599 451Q666 450 733.50 437.50Q801 425 853 398Q878 385 902.50 369.50Q927 354 947 334.50Q967 315 980.50 290Q994 265 998 232Q1000 210 988 177Q976 144 948 113Q956 79 976 59Q996 39 1024.50 34.50Q1053 30 1088 43Q1123 56 1160 88M398 262L534 689Q481 691 425.50 688Q370 685 310 674L398 262Z"  horiz-adv-x="1307" vert-adv-y="1000"  />

      
      <glyph glyph-name="uni45" unicode="&#x45;" d="M1160 88Q1155 133 1188 188Q1214 233 1246.50 255Q1279 277 1300 265Q1317 255 1318.50 233Q1320 211 1311 184Q1302 157 1285.50 129Q1269 101 1249.50 80.50Q1230 60 1211 51.50Q1192 43 1177 54L1175 54Q1139 20 1099 4Q1059-12 1022-10Q985-8 953.50 13Q922 34 902 74Q852 40 769 15.50Q686-9 586-18Q486-27 377-17.50Q268-8 167 28L39 193Q90 170 172.50 141.50Q255 113 351 90Q447 67 545.50 55Q644 43 727 53.50Q810 64 867 102.50Q924 141 937 219Q943 255 924 285.50Q905 316 871 340Q837 364 792.50 381Q748 398 701.50 407.50Q655 417 611.50 419Q568 421 537 415L529 470Q560 474 599 482Q638 490 673 503.50Q708 517 732.50 536Q757 555 760 581Q763 614 740.50 634.50Q718 655 687 666.50Q656 678 624 681.50Q592 685 575 685L418 144L372 111L272 666Q250 661 226.50 654.50Q203 648 179 640L192 697Q203 701 221.50 707Q240 713 264 717L252 782L279 823L302 722Q354 731 419 734.50Q484 738 549 734L587 853L614 823L587 728Q629 722 665.50 711Q702 700 729 683Q756 666 771 642.50Q786 619 785 589Q784 559 768 537Q752 515 726.50 498.50Q701 482 668 471Q635 460 599 451Q656 448 723.50 437.50Q791 427 849.50 402.50Q908 378 950 337Q992 296 998 232Q1000 210 988 177Q976 144 948 113Q956 79 976 59Q996 39 1024.50 34.50Q1053 30 1088 43Q1123 56 1160 88M398 262L534 689Q481 691 425.50 688Q370 685 310 674L398 262Z"  horiz-adv-x="1307" vert-adv-y="1000"  />

      
      <glyph glyph-name="uni46" unicode="&#x46;" d="M1160 88Q1155 133 1188 188Q1214 233 1246.50 255Q1279 277 1300 265Q1317 255 1318.50 233Q1320 211 1311 184Q1302 157 1285.50 129Q1269 101 1249.50 80.50Q1230 60 1211 51.50Q1192 43 1177 54L1175 54Q1139 20 1099 4Q1059-12 1022-10Q985-8 953.50 13Q922 34 902 74Q885 63 866 53.50Q847 44 825 35Q774 14 696-2Q618-18 528-22Q438-26 344-15Q250-4 167 28L39 193Q90 170 172.50 141.50Q255 113 351 90Q447 67 545.50 55Q644 43 727 53.50Q810 64 867 102.50Q924 141 937 219Q943 256 909.50 303Q876 350 805 381Q775 394 737.50 400.50Q700 407 663 410Q626 413 593 413.50Q560 414 537 415L529 470Q559 474 598.50 482Q638 490 673.50 503.50Q709 517 733.50 536Q758 555 760 581Q762 606 748 624Q734 642 713.50 653.50Q693 665 669 671.50Q645 678 626 681Q612 682 599.50 683.50Q587 685 575 685L418 144L372 111L272 666Q250 661 226.50 654.50Q203 648 179 640L192 697Q203 701 221.50 707Q240 713 264 717L252 782L279 823L302 722Q354 731 419 734.50Q484 738 549 734L587 853L614 823L587 728Q629 722 665.50 711Q702 700 729 683Q756 666 771 642.50Q786 619 785 589Q784 559 768 537Q752 515 726.50 498.50Q701 482 668 471Q635 460 599 451Q666 450 733.50 437.50Q801 425 853 398Q878 385 902.50 369.50Q927 354 947 334.50Q967 315 980.50 290Q994 265 998 232Q1000 210 988 177Q976 144 948 113Q956 79 976 59Q996 39 1024.50 34.50Q1053 30 1088 43Q1123 56 1160 88M398 262L534 689Q481 691 425.50 688Q370 685 310 674L398 262Z"  horiz-adv-x="1307" vert-adv-y="1000"  />

      
      <glyph glyph-name="uni47" unicode="&#x47;" d="M1160 88Q1155 133 1188 188Q1214 233 1246.50 255Q1279 277 1300 265Q1317 255 1318.50 233Q1320 211 1311 184Q1302 157 1285.50 129Q1269 101 1249.50 80.50Q1230 60 1211 51.50Q1192 43 1177 54L1175 54Q1139 20 1099 4Q1059-12 1022-10Q985-8 953.50 13Q922 34 902 74Q885 63 866 53.50Q847 44 825 35Q774 14 696-2Q618-18 528-22Q438-26 344-15Q250-4 167 28L39 193Q90 170 172.50 141.50Q255 113 351 90Q447 67 545.50 55Q644 43 727 53.50Q810 64 867 102.50Q924 141 937 219Q943 256 909.50 303Q876 350 805 381Q775 394 737.50 400.50Q700 407 663 410Q626 413 593 413.50Q560 414 537 415L529 470Q559 474 598.50 482Q638 490 673.50 503.50Q709 517 733.50 536Q758 555 760 581Q762 606 748 624Q734 642 713.50 653.50Q693 665 669 671.50Q645 678 626 681Q612 682 599.50 683.50Q587 685 575 685L418 144L372 111L272 666Q250 661 226.50 654.50Q203 648 179 640L192 697Q203 701 221.50 707Q240 713 264 717L252 782L279 823L302 722Q354 731 419 734.50Q484 738 549 734L587 853L614 823L587 728Q629 722 665.50 711Q702 700 729 683Q756 666 771 642.50Q786 619 785 589Q784 559 768 537Q752 515 726.50 498.50Q701 482 668 471Q635 460 599 451Q666 450 733.50 437.50Q801 425 853 398Q878 385 902.50 369.50Q927 354 947 334.50Q967 315 980.50 290Q994 265 998 232Q1000 210 988 177Q976 144 948 113Q956 79 976 59Q996 39 1024.50 34.50Q1053 30 1088 43Q1123 56 1160 88M398 262L534 689Q481 691 425.50 688Q370 685 310 674L398 262Z"  horiz-adv-x="1307" vert-adv-y="1000"  />

      
      <glyph glyph-name="uni48" unicode="&#x48;" d="M1160 88Q1155 133 1188 188Q1214 233 1246.50 255Q1279 277 1300 265Q1317 255 1318.50 233Q1320 211 1311 184Q1302 157 1285.50 129Q1269 101 1249.50 80.50Q1230 60 1211 51.50Q1192 43 1177 54L1175 54Q1139 20 1099 4Q1059-12 1022-10Q985-8 953.50 13Q922 34 902 74Q885 63 866 53.50Q847 44 825 35Q774 14 696-2Q618-18 528-22Q438-26 344-15Q250-4 167 28L39 193Q90 170 172.50 141.50Q255 113 351 90Q447 67 545.50 55Q644 43 727 53.50Q810 64 867 102.50Q924 141 937 219Q943 256 909.50 303Q876 350 805 381Q775 394 737.50 400.50Q700 407 663 410Q626 413 593 413.50Q560 414 537 415L529 470Q559 474 598.50 482Q638 490 673.50 503.50Q709 517 733.50 536Q758 555 760 581Q762 606 748 624Q734 642 713.50 653.50Q693 665 669 671.50Q645 678 626 681Q612 682 599.50 683.50Q587 685 575 685L418 144L372 111L272 666Q250 661 226.50 654.50Q203 648 179 640L192 697Q203 701 221.50 707Q240 713 264 717L252 782L279 823L302 722Q354 731 419 734.50Q484 738 549 734L587 853L614 823L587 728Q629 722 665.50 711Q702 700 729 683Q756 666 771 642.50Q786 619 785 589Q784 559 768 537Q752 515 726.50 498.50Q701 482 668 471Q635 460 599 451Q666 450 733.50 437.50Q801 425 853 398Q878 385 902.50 369.50Q927 354 947 334.50Q967 315 980.50 290Q994 265 998 232Q1000 210 988 177Q976 144 948 113Q956 79 976 59Q996 39 1024.50 34.50Q1053 30 1088 43Q1123 56 1160 88M398 262L534 689Q481 691 425.50 688Q370 685 310 674L398 262Z"  horiz-adv-x="1307" vert-adv-y="1000"  />

      
      <glyph glyph-name="uni49" unicode="&#x49;" d="M1160 88Q1155 133 1188 188Q1214 233 1246.50 255Q1279 277 1300 265Q1317 255 1318.50 233Q1320 211 1311 184Q1302 157 1285.50 129Q1269 101 1249.50 80.50Q1230 60 1211 51.50Q1192 43 1177 54L1175 54Q1139 20 1099 4Q1059-12 1022-10Q985-8 953.50 13Q922 34 902 74Q885 63 866 53.50Q847 44 825 35Q774 14 696-2Q618-18 528-22Q438-26 344-15Q250-4 167 28L39 193Q90 170 172.50 141.50Q255 113 351 90Q447 67 545.50 55Q644 43 727 53.50Q810 64 867 102.50Q924 141 937 219Q943 256 909.50 303Q876 350 805 381Q775 394 737.50 400.50Q700 407 663 410Q626 413 593 413.50Q560 414 537 415L529 470Q559 474 598.50 482Q638 490 673.50 503.50Q709 517 733.50 536Q758 555 760 581Q762 606 748 624Q734 642 713.50 653.50Q693 665 669 671.50Q645 678 626 681Q612 682 599.50 683.50Q587 685 575 685L418 144L372 111L272 666Q250 661 226.50 654.50Q203 648 179 640L192 697Q203 701 221.50 707Q240 713 264 717L252 782L279 823L302 722Q354 731 419 734.50Q484 738 549 734L587 853L614 823L587 728Q629 722 665.50 711Q702 700 729 683Q756 666 771 642.50Q786 619 785 589Q784 559 768 537Q752 515 726.50 498.50Q701 482 668 471Q635 460 599 451Q666 450 733.50 437.50Q801 425 853 398Q878 385 902.50 369.50Q927 354 947 334.50Q967 315 980.50 290Q994 265 998 232Q1000 210 988 177Q976 144 948 113Q956 79 976 59Q996 39 1024.50 34.50Q1053 30 1088 43Q1123 56 1160 88M398 262L534 689Q481 691 425.50 688Q370 685 310 674L398 262Z"  horiz-adv-x="1307" vert-adv-y="1000"  />

      
      <glyph glyph-name="uni4a" unicode="&#x4a;" d="M1160 88Q1155 133 1188 188Q1214 233 1246.50 255Q1279 277 1300 265Q1317 255 1318.50 233Q1320 211 1311 184Q1302 157 1285.50 129Q1269 101 1249.50 80.50Q1230 60 1211 51.50Q1192 43 1177 54L1175 54Q1139 20 1099 4Q1059-12 1022-10Q985-8 953.50 13Q922 34 902 74Q885 63 866 53.50Q847 44 825 35Q774 14 696-2Q618-18 528-22Q438-26 344-15Q250-4 167 28L39 193Q90 170 172.50 141.50Q255 113 351 90Q447 67 545.50 55Q644 43 727 53.50Q810 64 867 102.50Q924 141 937 219Q943 256 909.50 303Q876 350 805 381Q775 394 737.50 400.50Q700 407 663 410Q626 413 593 413.50Q560 414 537 415L529 470Q559 474 598.50 482Q638 490 673.50 503.50Q709 517 733.50 536Q758 555 760 581Q762 606 748 624Q734 642 713.50 653.50Q693 665 669 671.50Q645 678 626 681Q612 682 599.50 683.50Q587 685 575 685L418 144L372 111L272 666Q250 661 226.50 654.50Q203 648 179 640L192 697Q203 701 221.50 707Q240 713 264 717L252 782L279 823L302 722Q354 731 419 734.50Q484 738 549 734L587 853L614 823L587 728Q629 722 665.50 711Q702 700 729 683Q756 666 771 642.50Q786 619 785 589Q784 559 768 537Q752 515 726.50 498.50Q701 482 668 471Q635 460 599 451Q666 450 733.50 437.50Q801 425 853 398Q878 385 902.50 369.50Q927 354 947 334.50Q967 315 980.50 290Q994 265 998 232Q1000 210 988 177Q976 144 948 113Q956 79 976 59Q996 39 1024.50 34.50Q1053 30 1088 43Q1123 56 1160 88M398 262L534 689Q481 691 425.50 688Q370 685 310 674L398 262Z"  horiz-adv-x="1307" vert-adv-y="1000"  />

      
      <glyph glyph-name="uni4b" unicode="&#x4b;" d="M1160 88Q1155 133 1188 188Q1214 233 1246.50 255Q1279 277 1300 265Q1317 255 1318.50 233Q1320 211 1311 184Q1302 157 1285.50 129Q1269 101 1249.50 80.50Q1230 60 1211 51.50Q1192 43 1177 54L1175 54Q1139 20 1099 4Q1059-12 1022-10Q985-8 953.50 13Q922 34 902 74Q885 63 866 53.50Q847 44 825 35Q774 14 696-2Q618-18 528-22Q438-26 344-15Q250-4 167 28L39 193Q90 170 172.50 141.50Q255 113 351 90Q447 67 545.50 55Q644 43 727 53.50Q810 64 867 102.50Q924 141 937 219Q943 256 909.50 303Q876 350 805 381Q775 394 737.50 400.50Q700 407 663 410Q626 413 593 413.50Q560 414 537 415L529 470Q559 474 598.50 482Q638 490 673.50 503.50Q709 517 733.50 536Q758 555 760 581Q762 606 748 624Q734 642 713.50 653.50Q693 665 669 671.50Q645 678 626 681Q612 682 599.50 683.50Q587 685 575 685L418 144L372 111L272 666Q250 661 226.50 654.50Q203 648 179 640L192 697Q203 701 221.50 707Q240 713 264 717L252 782L279 823L302 722Q354 731 419 734.50Q484 738 549 734L587 853L614 823L587 728Q629 722 665.50 711Q702 700 729 683Q756 666 771 642.50Q786 619 785 589Q784 559 768 537Q752 515 726.50 498.50Q701 482 668 471Q635 460 599 451Q666 450 733.50 437.50Q801 425 853 398Q878 385 902.50 369.50Q927 354 947 334.50Q967 315 980.50 290Q994 265 998 232Q1000 210 988 177Q976 144 948 113Q956 79 976 59Q996 39 1024.50 34.50Q1053 30 1088 43Q1123 56 1160 88M398 262L534 689Q481 691 425.50 688Q370 685 310 674L398 262Z"  horiz-adv-x="1307" vert-adv-y="1000"  />

      
      <glyph glyph-name="uni4c" unicode="&#x4c;" d="M1160 88Q1155 133 1188 188Q1214 233 1246.50 255Q1279 277 1300 265Q1317 255 1318.50 233Q1320 211 1311 184Q1302 157 1285.50 129Q1269 101 1249.50 80.50Q1230 60 1211 51.50Q1192 43 1177 54L1175 54Q1139 20 1099 4Q1059-12 1022-10Q985-8 953.50 13Q922 34 902 74Q885 63 866 53.50Q847 44 825 35Q774 14 696-2Q618-18 528-22Q438-26 344-15Q250-4 167 28L39 193Q90 170 172.50 141.50Q255 113 351 90Q447 67 545.50 55Q644 43 727 53.50Q810 64 867 102.50Q924 141 937 219Q943 256 909.50 303Q876 350 805 381Q775 394 737.50 400.50Q700 407 663 410Q626 413 593 413.50Q560 414 537 415L529 470Q559 474 598.50 482Q638 490 673.50 503.50Q709 517 733.50 536Q758 555 760 581Q762 606 748 624Q734 642 713.50 653.50Q693 665 669 671.50Q645 678 626 681Q612 682 599.50 683.50Q587 685 575 685L418 144L372 111L272 666Q250 661 226.50 654.50Q203 648 179 640L192 697Q203 701 221.50 707Q240 713 264 717L252 782L279 823L302 722Q354 731 419 734.50Q484 738 549 734L587 853L614 823L587 728Q629 722 665.50 711Q702 700 729 683Q756 666 771 642.50Q786 619 785 589Q784 559 768 537Q752 515 726.50 498.50Q701 482 668 471Q635 460 599 451Q666 450 733.50 437.50Q801 425 853 398Q878 385 902.50 369.50Q927 354 947 334.50Q967 315 980.50 290Q994 265 998 232Q1000 210 988 177Q976 144 948 113Q956 79 976 59Q996 39 1024.50 34.50Q1053 30 1088 43Q1123 56 1160 88M398 262L534 689Q481 691 425.50 688Q370 685 310 674L398 262Z"  horiz-adv-x="1307" vert-adv-y="1000"  />

      
      <glyph glyph-name="uni4d" unicode="&#x4d;" d="M1160 88Q1155 133 1188 188Q1214 233 1246.50 255Q1279 277 1300 265Q1317 255 1318.50 233Q1320 211 1311 184Q1302 157 1285.50 129Q1269 101 1249.50 80.50Q1230 60 1211 51.50Q1192 43 1177 54L1175 54Q1139 20 1099 4Q1059-12 1022-10Q985-8 953.50 13Q922 34 902 74Q885 63 866 53.50Q847 44 825 35Q774 14 696-2Q618-18 528-22Q438-26 344-15Q250-4 167 28L39 193Q90 170 172.50 141.50Q255 113 351 90Q447 67 545.50 55Q644 43 727 53.50Q810 64 867 102.50Q924 141 937 219Q943 256 909.50 303Q876 350 805 381Q775 394 737.50 400.50Q700 407 663 410Q626 413 593 413.50Q560 414 537 415L529 470Q559 474 598.50 482Q638 490 673.50 503.50Q709 517 733.50 536Q758 555 760 581Q762 606 748 624Q734 642 713.50 653.50Q693 665 669 671.50Q645 678 626 681Q612 682 599.50 683.50Q587 685 575 685L418 144L372 111L272 666Q250 661 226.50 654.50Q203 648 179 640L192 697Q203 701 221.50 707Q240 713 264 717L252 782L279 823L302 722Q354 731 419 734.50Q484 738 549 734L587 853L614 823L587 728Q629 722 665.50 711Q702 700 729 683Q756 666 771 642.50Q786 619 785 589Q784 559 768 537Q752 515 726.50 498.50Q701 482 668 471Q635 460 599 451Q666 450 733.50 437.50Q801 425 853 398Q878 385 902.50 369.50Q927 354 947 334.50Q967 315 980.50 290Q994 265 998 232Q1000 210 988 177Q976 144 948 113Q956 79 976 59Q996 39 1024.50 34.50Q1053 30 1088 43Q1123 56 1160 88M398 262L534 689Q481 691 425.50 688Q370 685 310 674L398 262Z"  horiz-adv-x="1307" vert-adv-y="1000"  />

      
      <glyph glyph-name="uni4e" unicode="&#x4e;" d="M1160 88Q1155 133 1188 188Q1214 233 1246.50 255Q1279 277 1300 265Q1317 255 1318.50 233Q1320 211 1311 184Q1302 157 1285.50 129Q1269 101 1249.50 80.50Q1230 60 1211 51.50Q1192 43 1177 54L1175 54Q1139 20 1099 4Q1059-12 1022-10Q985-8 953.50 13Q922 34 902 74Q885 63 866 53.50Q847 44 825 35Q774 14 696-2Q618-18 528-22Q438-26 344-15Q250-4 167 28L39 193Q90 170 172.50 141.50Q255 113 351 90Q447 67 545.50 55Q644 43 727 53.50Q810 64 867 102.50Q924 141 937 219Q943 256 909.50 303Q876 350 805 381Q775 394 737.50 400.50Q700 407 663 410Q626 413 593 413.50Q560 414 537 415L529 470Q559 474 598.50 482Q638 490 673.50 503.50Q709 517 733.50 536Q758 555 760 581Q762 606 748 624Q734 642 713.50 653.50Q693 665 669 671.50Q645 678 626 681Q612 682 599.50 683.50Q587 685 575 685L418 144L372 111L272 666Q250 661 226.50 654.50Q203 648 179 640L192 697Q203 701 221.50 707Q240 713 264 717L252 782L279 823L302 722Q354 731 419 734.50Q484 738 549 734L587 853L614 823L587 728Q629 722 665.50 711Q702 700 729 683Q756 666 771 642.50Q786 619 785 589Q784 559 768 537Q752 515 726.50 498.50Q701 482 668 471Q635 460 599 451Q666 450 733.50 437.50Q801 425 853 398Q878 385 902.50 369.50Q927 354 947 334.50Q967 315 980.50 290Q994 265 998 232Q1000 210 988 177Q976 144 948 113Q956 79 976 59Q996 39 1024.50 34.50Q1053 30 1088 43Q1123 56 1160 88M398 262L534 689Q481 691 425.50 688Q370 685 310 674L398 262Z"  horiz-adv-x="1307" vert-adv-y="1000"  />

      
      <glyph glyph-name="uni4f" unicode="&#x4f;" d="M1160 88Q1155 133 1188 188Q1214 233 1246.50 255Q1279 277 1300 265Q1317 255 1318.50 233Q1320 211 1311 184Q1302 157 1285.50 129Q1269 101 1249.50 80.50Q1230 60 1211 51.50Q1192 43 1177 54L1175 54Q1139 20 1099 4Q1059-12 1022-10Q985-8 953.50 13Q922 34 902 74Q885 63 866 53.50Q847 44 825 35Q774 14 696-2Q618-18 528-22Q438-26 344-15Q250-4 167 28L39 193Q90 170 172.50 141.50Q255 113 351 90Q447 67 545.50 55Q644 43 727 53.50Q810 64 867 102.50Q924 141 937 219Q943 256 909.50 303Q876 350 805 381Q775 394 737.50 400.50Q700 407 663 410Q626 413 593 413.50Q560 414 537 415L529 470Q559 474 598.50 482Q638 490 673.50 503.50Q709 517 733.50 536Q758 555 760 581Q762 606 748 624Q734 642 713.50 653.50Q693 665 669 671.50Q645 678 626 681Q612 682 599.50 683.50Q587 685 575 685L418 144L372 111L272 666Q250 661 226.50 654.50Q203 648 179 640L192 697Q203 701 221.50 707Q240 713 264 717L252 782L279 823L302 722Q354 731 419 734.50Q484 738 549 734L587 853L614 823L587 728Q629 722 665.50 711Q702 700 729 683Q756 666 771 642.50Q786 619 785 589Q784 559 768 537Q752 515 726.50 498.50Q701 482 668 471Q635 460 599 451Q666 450 733.50 437.50Q801 425 853 398Q878 385 902.50 369.50Q927 354 947 334.50Q967 315 980.50 290Q994 265 998 232Q1000 210 988 177Q976 144 948 113Q956 79 976 59Q996 39 1024.50 34.50Q1053 30 1088 43Q1123 56 1160 88M398 262L534 689Q481 691 425.50 688Q370 685 310 674L398 262Z"  horiz-adv-x="1307" vert-adv-y="1000"  />

      
      <glyph glyph-name="uni50" unicode="&#x50;" d="M1160 88Q1155 133 1188 188Q1214 233 1246.50 255Q1279 277 1300 265Q1317 255 1318.50 233Q1320 211 1311 184Q1302 157 1285.50 129Q1269 101 1249.50 80.50Q1230 60 1211 51.50Q1192 43 1177 54L1175 54Q1139 20 1099 4Q1059-12 1022-10Q985-8 953.50 13Q922 34 902 74Q885 63 866 53.50Q847 44 825 35Q774 14 696-2Q618-18 528-22Q438-26 344-15Q250-4 167 28L39 193Q90 170 172.50 141.50Q255 113 351 90Q447 67 545.50 55Q644 43 727 53.50Q810 64 867 102.50Q924 141 937 219Q943 256 909.50 303Q876 350 805 381Q775 394 737.50 400.50Q700 407 663 410Q626 413 593 413.50Q560 414 537 415L529 470Q559 474 598.50 482Q638 490 673.50 503.50Q709 517 733.50 536Q758 555 760 581Q762 606 748 624Q734 642 713.50 653.50Q693 665 669 671.50Q645 678 626 681Q612 682 599.50 683.50Q587 685 575 685L418 144L372 111L272 666Q250 661 226.50 654.50Q203 648 179 640L192 697Q203 701 221.50 707Q240 713 264 717L252 782L279 823L302 722Q354 731 419 734.50Q484 738 549 734L587 853L614 823L587 728Q629 722 665.50 711Q702 700 729 683Q756 666 771 642.50Q786 619 785 589Q784 559 768 537Q752 515 726.50 498.50Q701 482 668 471Q635 460 599 451Q666 450 733.50 437.50Q801 425 853 398Q878 385 902.50 369.50Q927 354 947 334.50Q967 315 980.50 290Q994 265 998 232Q1000 210 988 177Q976 144 948 113Q956 79 976 59Q996 39 1024.50 34.50Q1053 30 1088 43Q1123 56 1160 88M398 262L534 689Q481 691 425.50 688Q370 685 310 674L398 262Z"  horiz-adv-x="1307" vert-adv-y="1000"  />

      
      <glyph glyph-name="uni51" unicode="&#x51;" d="M1160 88Q1155 133 1188 188Q1214 233 1246.50 255Q1279 277 1300 265Q1317 255 1318.50 233Q1320 211 1311 184Q1302 157 1285.50 129Q1269 101 1249.50 80.50Q1230 60 1211 51.50Q1192 43 1177 54L1175 54Q1139 20 1099 4Q1059-12 1022-10Q985-8 953.50 13Q922 34 902 74Q885 63 866 53.50Q847 44 825 35Q774 14 696-2Q618-18 528-22Q438-26 344-15Q250-4 167 28L39 193Q90 170 172.50 141.50Q255 113 351 90Q447 67 545.50 55Q644 43 727 53.50Q810 64 867 102.50Q924 141 937 219Q943 256 909.50 303Q876 350 805 381Q775 394 737.50 400.50Q700 407 663 410Q626 413 593 413.50Q560 414 537 415L529 470Q559 474 598.50 482Q638 490 673.50 503.50Q709 517 733.50 536Q758 555 760 581Q762 606 748 624Q734 642 713.50 653.50Q693 665 669 671.50Q645 678 626 681Q612 682 599.50 683.50Q587 685 575 685L418 144L372 111L272 666Q250 661 226.50 654.50Q203 648 179 640L192 697Q203 701 221.50 707Q240 713 264 717L252 782L279 823L302 722Q354 731 419 734.50Q484 738 549 734L587 853L614 823L587 728Q629 722 665.50 711Q702 700 729 683Q756 666 771 642.50Q786 619 785 589Q784 559 768 537Q752 515 726.50 498.50Q701 482 668 471Q635 460 599 451Q666 450 733.50 437.50Q801 425 853 398Q878 385 902.50 369.50Q927 354 947 334.50Q967 315 980.50 290Q994 265 998 232Q1000 210 988 177Q976 144 948 113Q956 79 976 59Q996 39 1024.50 34.50Q1053 30 1088 43Q1123 56 1160 88M398 262L534 689Q481 691 425.50 688Q370 685 310 674L398 262Z"  horiz-adv-x="1307" vert-adv-y="1000"  />

      
      <glyph glyph-name="uni52" unicode="&#x52;" d="M1160 88Q1155 133 1188 188Q1214 233 1246.50 255Q1279 277 1300 265Q1317 255 1318.50 233Q1320 211 1311 184Q1302 157 1285.50 129Q1269 101 1249.50 80.50Q1230 60 1211 51.50Q1192 43 1177 54L1175 54Q1139 20 1099 4Q1059-12 1022-10Q985-8 953.50 13Q922 34 902 74Q885 63 866 53.50Q847 44 825 35Q774 14 696-2Q618-18 528-22Q438-26 344-15Q250-4 167 28L39 193Q90 170 172.50 141.50Q255 113 351 90Q447 67 545.50 55Q644 43 727 53.50Q810 64 867 102.50Q924 141 937 219Q943 256 909.50 303Q876 350 805 381Q775 394 737.50 400.50Q700 407 663 410Q626 413 593 413.50Q560 414 537 415L529 470Q559 474 598.50 482Q638 490 673.50 503.50Q709 517 733.50 536Q758 555 760 581Q762 606 748 624Q734 642 713.50 653.50Q693 665 669 671.50Q645 678 626 681Q612 682 599.50 683.50Q587 685 575 685L418 144L372 111L272 666Q250 661 226.50 654.50Q203 648 179 640L192 697Q203 701 221.50 707Q240 713 264 717L252 782L279 823L302 722Q354 731 419 734.50Q484 738 549 734L587 853L614 823L587 728Q629 722 665.50 711Q702 700 729 683Q756 666 771 642.50Q786 619 785 589Q784 559 768 537Q752 515 726.50 498.50Q701 482 668 471Q635 460 599 451Q666 450 733.50 437.50Q801 425 853 398Q878 385 902.50 369.50Q927 354 947 334.50Q967 315 980.50 290Q994 265 998 232Q1000 210 988 177Q976 144 948 113Q956 79 976 59Q996 39 1024.50 34.50Q1053 30 1088 43Q1123 56 1160 88M398 262L534 689Q481 691 425.50 688Q370 685 310 674L398 262Z"  horiz-adv-x="1307" vert-adv-y="1000"  />

      
      <glyph glyph-name="uni53" unicode="&#x53;" d="M1160 88Q1155 133 1188 188Q1214 233 1246.50 255Q1279 277 1300 265Q1317 255 1318.50 233Q1320 211 1311 184Q1302 157 1285.50 129Q1269 101 1249.50 80.50Q1230 60 1211 51.50Q1192 43 1177 54L1175 54Q1139 20 1099 4Q1059-12 1022-10Q985-8 953.50 13Q922 34 902 74Q885 63 866 53.50Q847 44 825 35Q774 14 696-2Q618-18 528-22Q438-26 344-15Q250-4 167 28L39 193Q90 170 172.50 141.50Q255 113 351 90Q447 67 545.50 55Q644 43 727 53.50Q810 64 867 102.50Q924 141 937 219Q943 256 909.50 303Q876 350 805 381Q775 394 737.50 400.50Q700 407 663 410Q626 413 593 413.50Q560 414 537 415L529 470Q559 474 598.50 482Q638 490 673.50 503.50Q709 517 733.50 536Q758 555 760 581Q762 606 748 624Q734 642 713.50 653.50Q693 665 669 671.50Q645 678 626 681Q612 682 599.50 683.50Q587 685 575 685L418 144L372 111L272 666Q250 661 226.50 654.50Q203 648 179 640L192 697Q203 701 221.50 707Q240 713 264 717L252 782L279 823L302 722Q354 731 419 734.50Q484 738 549 734L587 853L614 823L587 728Q629 722 665.50 711Q702 700 729 683Q756 666 771 642.50Q786 619 785 589Q784 559 768 537Q752 515 726.50 498.50Q701 482 668 471Q635 460 599 451Q666 450 733.50 437.50Q801 425 853 398Q878 385 902.50 369.50Q927 354 947 334.50Q967 315 980.50 290Q994 265 998 232Q1000 210 988 177Q976 144 948 113Q956 79 976 59Q996 39 1024.50 34.50Q1053 30 1088 43Q1123 56 1160 88M398 262L534 689Q481 691 425.50 688Q370 685 310 674L398 262Z"  horiz-adv-x="1307" vert-adv-y="1000"  />

      
      <glyph glyph-name="uni54" unicode="&#x54;" d="M1160 88Q1155 133 1188 188Q1214 233 1246.50 255Q1279 277 1300 265Q1317 255 1318.50 233Q1320 211 1311 184Q1302 157 1285.50 129Q1269 101 1249.50 80.50Q1230 60 1211 51.50Q1192 43 1177 54L1175 54Q1139 20 1099 4Q1059-12 1022-10Q985-8 953.50 13Q922 34 902 74Q885 63 866 53.50Q847 44 825 35Q774 14 696-2Q618-18 528-22Q438-26 344-15Q250-4 167 28L39 193Q90 170 172.50 141.50Q255 113 351 90Q447 67 545.50 55Q644 43 727 53.50Q810 64 867 102.50Q924 141 937 219Q943 256 909.50 303Q876 350 805 381Q775 394 737.50 400.50Q700 407 663 410Q626 413 593 413.50Q560 414 537 415L529 470Q559 474 598.50 482Q638 490 673.50 503.50Q709 517 733.50 536Q758 555 760 581Q762 606 748 624Q734 642 713.50 653.50Q693 665 669 671.50Q645 678 626 681Q612 682 599.50 683.50Q587 685 575 685L418 144L372 111L272 666Q250 661 226.50 654.50Q203 648 179 640L192 697Q203 701 221.50 707Q240 713 264 717L252 782L279 823L302 722Q354 731 419 734.50Q484 738 549 734L587 853L614 823L587 728Q629 722 665.50 711Q702 700 729 683Q756 666 771 642.50Q786 619 785 589Q784 559 768 537Q752 515 726.50 498.50Q701 482 668 471Q635 460 599 451Q666 450 733.50 437.50Q801 425 853 398Q878 385 902.50 369.50Q927 354 947 334.50Q967 315 980.50 290Q994 265 998 232Q1000 210 988 177Q976 144 948 113Q956 79 976 59Q996 39 1024.50 34.50Q1053 30 1088 43Q1123 56 1160 88M398 262L534 689Q481 691 425.50 688Q370 685 310 674L398 262Z"  horiz-adv-x="1307" vert-adv-y="1000"  />

      
      <glyph glyph-name="uni55" unicode="&#x55;" d="M1160 88Q1155 133 1188 188Q1214 233 1246.50 255Q1279 277 1300 265Q1317 255 1318.50 233Q1320 211 1311 184Q1302 157 1285.50 129Q1269 101 1249.50 80.50Q1230 60 1211 51.50Q1192 43 1177 54L1175 54Q1139 20 1099 4Q1059-12 1022-10Q985-8 953.50 13Q922 34 902 74Q885 63 866 53.50Q847 44 825 35Q774 14 696-2Q618-18 528-22Q438-26 344-15Q250-4 167 28L39 193Q90 170 172.50 141.50Q255 113 351 90Q447 67 545.50 55Q644 43 727 53.50Q810 64 867 102.50Q924 141 937 219Q943 256 909.50 303Q876 350 805 381Q775 394 737.50 400.50Q700 407 663 410Q626 413 593 413.50Q560 414 537 415L529 470Q559 474 598.50 482Q638 490 673.50 503.50Q709 517 733.50 536Q758 555 760 581Q762 606 748 624Q734 642 713.50 653.50Q693 665 669 671.50Q645 678 626 681Q612 682 599.50 683.50Q587 685 575 685L418 144L372 111L272 666Q250 661 226.50 654.50Q203 648 179 640L192 697Q203 701 221.50 707Q240 713 264 717L252 782L279 823L302 722Q354 731 419 734.50Q484 738 549 734L587 853L614 823L587 728Q629 722 665.50 711Q702 700 729 683Q756 666 771 642.50Q786 619 785 589Q784 559 768 537Q752 515 726.50 498.50Q701 482 668 471Q635 460 599 451Q666 450 733.50 437.50Q801 425 853 398Q878 385 902.50 369.50Q927 354 947 334.50Q967 315 980.50 290Q994 265 998 232Q1000 210 988 177Q976 144 948 113Q956 79 976 59Q996 39 1024.50 34.50Q1053 30 1088 43Q1123 56 1160 88M398 262L534 689Q481 691 425.50 688Q370 685 310 674L398 262Z"  horiz-adv-x="1307" vert-adv-y="1000"  />

      
      <glyph glyph-name="uni56" unicode="&#x56;" d="M1160 88Q1155 133 1188 188Q1214 233 1246.50 255Q1279 277 1300 265Q1317 255 1318.50 233Q1320 211 1311 184Q1302 157 1285.50 129Q1269 101 1249.50 80.50Q1230 60 1211 51.50Q1192 43 1177 54L1175 54Q1139 20 1099 4Q1059-12 1022-10Q985-8 953.50 13Q922 34 902 74Q885 63 866 53.50Q847 44 825 35Q774 14 696-2Q618-18 528-22Q438-26 344-15Q250-4 167 28L39 193Q90 170 172.50 141.50Q255 113 351 90Q447 67 545.50 55Q644 43 727 53.50Q810 64 867 102.50Q924 141 937 219Q943 256 909.50 303Q876 350 805 381Q775 394 737.50 400.50Q700 407 663 410Q626 413 593 413.50Q560 414 537 415L529 470Q559 474 598.50 482Q638 490 673.50 503.50Q709 517 733.50 536Q758 555 760 581Q762 606 748 624Q734 642 713.50 653.50Q693 665 669 671.50Q645 678 626 681Q612 682 599.50 683.50Q587 685 575 685L418 144L372 111L272 666Q250 661 226.50 654.50Q203 648 179 640L192 697Q203 701 221.50 707Q240 713 264 717L252 782L279 823L302 722Q354 731 419 734.50Q484 738 549 734L587 853L614 823L587 728Q629 722 665.50 711Q702 700 729 683Q756 666 771 642.50Q786 619 785 589Q784 559 768 537Q752 515 726.50 498.50Q701 482 668 471Q635 460 599 451Q666 450 733.50 437.50Q801 425 853 398Q878 385 902.50 369.50Q927 354 947 334.50Q967 315 980.50 290Q994 265 998 232Q1000 210 988 177Q976 144 948 113Q956 79 976 59Q996 39 1024.50 34.50Q1053 30 1088 43Q1123 56 1160 88M398 262L534 689Q481 691 425.50 688Q370 685 310 674L398 262Z"  horiz-adv-x="1307" vert-adv-y="1000"  />

      
      <glyph glyph-name="uni57" unicode="&#x57;" d="M1160 88Q1155 133 1188 188Q1214 233 1246.50 255Q1279 277 1300 265Q1317 255 1318.50 233Q1320 211 1311 184Q1302 157 1285.50 129Q1269 101 1249.50 80.50Q1230 60 1211 51.50Q1192 43 1177 54L1175 54Q1139 20 1099 4Q1059-12 1022-10Q985-8 953.50 13Q922 34 902 74Q885 63 866 53.50Q847 44 825 35Q774 14 696-2Q618-18 528-22Q438-26 344-15Q250-4 167 28L39 193Q90 170 172.50 141.50Q255 113 351 90Q447 67 545.50 55Q644 43 727 53.50Q810 64 867 102.50Q924 141 937 219Q943 256 909.50 303Q876 350 805 381Q775 394 737.50 400.50Q700 407 663 410Q626 413 593 413.50Q560 414 537 415L529 470Q559 474 598.50 482Q638 490 673.50 503.50Q709 517 733.50 536Q758 555 760 581Q762 606 748 624Q734 642 713.50 653.50Q693 665 669 671.50Q645 678 626 681Q612 682 599.50 683.50Q587 685 575 685L418 144L372 111L272 666Q250 661 226.50 654.50Q203 648 179 640L192 697Q203 701 221.50 707Q240 713 264 717L252 782L279 823L302 722Q354 731 419 734.50Q484 738 549 734L587 853L614 823L587 728Q629 722 665.50 711Q702 700 729 683Q756 666 771 642.50Q786 619 785 589Q784 559 768 537Q752 515 726.50 498.50Q701 482 668 471Q635 460 599 451Q666 450 733.50 437.50Q801 425 853 398Q878 385 902.50 369.50Q927 354 947 334.50Q967 315 980.50 290Q994 265 998 232Q1000 210 988 177Q976 144 948 113Q956 79 976 59Q996 39 1024.50 34.50Q1053 30 1088 43Q1123 56 1160 88M398 262L534 689Q481 691 425.50 688Q370 685 310 674L398 262Z"  horiz-adv-x="1307" vert-adv-y="1000"  />

      
      <glyph glyph-name="uni58" unicode="&#x58;" d="M1160 88Q1155 133 1188 188Q1214 233 1246.50 255Q1279 277 1300 265Q1317 255 1318.50 233Q1320 211 1311 184Q1302 157 1285.50 129Q1269 101 1249.50 80.50Q1230 60 1211 51.50Q1192 43 1177 54L1175 54Q1139 20 1099 4Q1059-12 1022-10Q985-8 953.50 13Q922 34 902 74Q885 63 866 53.50Q847 44 825 35Q774 14 696-2Q618-18 528-22Q438-26 344-15Q250-4 167 28L39 193Q90 170 172.50 141.50Q255 113 351 90Q447 67 545.50 55Q644 43 727 53.50Q810 64 867 102.50Q924 141 937 219Q943 256 909.50 303Q876 350 805 381Q775 394 737.50 400.50Q700 407 663 410Q626 413 593 413.50Q560 414 537 415L529 470Q559 474 598.50 482Q638 490 673.50 503.50Q709 517 733.50 536Q758 555 760 581Q762 606 748 624Q734 642 713.50 653.50Q693 665 669 671.50Q645 678 626 681Q612 682 599.50 683.50Q587 685 575 685L418 144L372 111L272 666Q250 661 226.50 654.50Q203 648 179 640L192 697Q203 701 221.50 707Q240 713 264 717L252 782L279 823L302 722Q354 731 419 734.50Q484 738 549 734L587 853L614 823L587 728Q629 722 665.50 711Q702 700 729 683Q756 666 771 642.50Q786 619 785 589Q784 559 768 537Q752 515 726.50 498.50Q701 482 668 471Q635 460 599 451Q666 450 733.50 437.50Q801 425 853 398Q878 385 902.50 369.50Q927 354 947 334.50Q967 315 980.50 290Q994 265 998 232Q1000 210 988 177Q976 144 948 113Q956 79 976 59Q996 39 1024.50 34.50Q1053 30 1088 43Q1123 56 1160 88M398 262L534 689Q481 691 425.50 688Q370 685 310 674L398 262Z"  horiz-adv-x="1307" vert-adv-y="1000"  />

      
      <glyph glyph-name="uni59" unicode="&#x59;" d="M1160 88Q1155 133 1188 188Q1214 233 1246.50 255Q1279 277 1300 265Q1317 255 1318.50 233Q1320 211 1311 184Q1302 157 1285.50 129Q1269 101 1249.50 80.50Q1230 60 1211 51.50Q1192 43 1177 54L1175 54Q1139 20 1099 4Q1059-12 1022-10Q985-8 953.50 13Q922 34 902 74Q885 63 866 53.50Q847 44 825 35Q774 14 696-2Q618-18 528-22Q438-26 344-15Q250-4 167 28L39 193Q90 170 172.50 141.50Q255 113 351 90Q447 67 545.50 55Q644 43 727 53.50Q810 64 867 102.50Q924 141 937 219Q943 256 909.50 303Q876 350 805 381Q775 394 737.50 400.50Q700 407 663 410Q626 413 593 413.50Q560 414 537 415L529 470Q559 474 598.50 482Q638 490 673.50 503.50Q709 517 733.50 536Q758 555 760 581Q762 606 748 624Q734 642 713.50 653.50Q693 665 669 671.50Q645 678 626 681Q612 682 599.50 683.50Q587 685 575 685L418 144L372 111L272 666Q250 661 226.50 654.50Q203 648 179 640L192 697Q203 701 221.50 707Q240 713 264 717L252 782L279 823L302 722Q354 731 419 734.50Q484 738 549 734L587 853L614 823L587 728Q629 722 665.50 711Q702 700 729 683Q756 666 771 642.50Q786 619 785 589Q784 559 768 537Q752 515 726.50 498.50Q701 482 668 471Q635 460 599 451Q666 450 733.50 437.50Q801 425 853 398Q878 385 902.50 369.50Q927 354 947 334.50Q967 315 980.50 290Q994 265 998 232Q1000 210 988 177Q976 144 948 113Q956 79 976 59Q996 39 1024.50 34.50Q1053 30 1088 43Q1123 56 1160 88M398 262L534 689Q481 691 425.50 688Q370 685 310 674L398 262Z"  horiz-adv-x="1307" vert-adv-y="1000"  />

      
      <glyph glyph-name="uni5a" unicode="&#x5a;" d="M1160 88Q1155 133 1188 188Q1214 233 1246.50 255Q1279 277 1300 265Q1317 255 1318.50 233Q1320 211 1311 184Q1302 157 1285.50 129Q1269 101 1249.50 80.50Q1230 60 1211 51.50Q1192 43 1177 54L1175 54Q1139 20 1099 4Q1059-12 1022-10Q985-8 953.50 13Q922 34 902 74Q885 63 866 53.50Q847 44 825 35Q774 14 696-2Q618-18 528-22Q438-26 344-15Q250-4 167 28L39 193Q90 170 172.50 141.50Q255 113 351 90Q447 67 545.50 55Q644 43 727 53.50Q810 64 867 102.50Q924 141 937 219Q943 256 909.50 303Q876 350 805 381Q775 394 737.50 400.50Q700 407 663 410Q626 413 593 413.50Q560 414 537 415L529 470Q559 474 598.50 482Q638 490 673.50 503.50Q709 517 733.50 536Q758 555 760 581Q762 606 748 624Q734 642 713.50 653.50Q693 665 669 671.50Q645 678 626 681Q612 682 599.50 683.50Q587 685 575 685L418 144L372 111L272 666Q250 661 226.50 654.50Q203 648 179 640L192 697Q203 701 221.50 707Q240 713 264 717L252 782L279 823L302 722Q354 731 419 734.50Q484 738 549 734L587 853L614 823L587 728Q629 722 665.50 711Q702 700 729 683Q756 666 771 642.50Q786 619 785 589Q784 559 768 537Q752 515 726.50 498.50Q701 482 668 471Q635 460 599 451Q666 450 733.50 437.50Q801 425 853 398Q878 385 902.50 369.50Q927 354 947 334.50Q967 315 980.50 290Q994 265 998 232Q1000 210 988 177Q976 144 948 113Q956 79 976 59Q996 39 1024.50 34.50Q1053 30 1088 43Q1123 56 1160 88M398 262L534 689Q481 691 425.50 688Q370 685 310 674L398 262Z"  horiz-adv-x="1307" vert-adv-y="1000"  />

      
      <glyph glyph-name="uni5b" unicode="&#x5b;" d="M1160 88Q1155 133 1188 188Q1214 233 1246.50 255Q1279 277 1300 265Q1317 255 1318.50 233Q1320 211 1311 184Q1302 157 1285.50 129Q1269 101 1249.50 80.50Q1230 60 1211 51.50Q1192 43 1177 54L1175 54Q1139 20 1099 4Q1059-12 1022-10Q985-8 953.50 13Q922 34 902 74Q885 63 866 53.50Q847 44 825 35Q774 14 696-2Q618-18 528-22Q438-26 344-15Q250-4 167 28L39 193Q90 170 172.50 141.50Q255 113 351 90Q447 67 545.50 55Q644 43 727 53.50Q810 64 867 102.50Q924 141 937 219Q943 256 909.50 303Q876 350 805 381Q775 394 737.50 400.50Q700 407 663 410Q626 413 593 413.50Q560 414 537 415L529 470Q559 474 598.50 482Q638 490 673.50 503.50Q709 517 733.50 536Q758 555 760 581Q762 606 748 624Q734 642 713.50 653.50Q693 665 669 671.50Q645 678 626 681Q612 682 599.50 683.50Q587 685 575 685L418 144L372 111L272 666Q250 661 226.50 654.50Q203 648 179 640L192 697Q203 701 221.50 707Q240 713 264 717L252 782L279 823L302 722Q354 731 419 734.50Q484 738 549 734L587 853L614 823L587 728Q629 722 665.50 711Q702 700 729 683Q756 666 771 642.50Q786 619 785 589Q784 559 768 537Q752 515 726.50 498.50Q701 482 668 471Q635 460 599 451Q666 450 733.50 437.50Q801 425 853 398Q878 385 902.50 369.50Q927 354 947 334.50Q967 315 980.50 290Q994 265 998 232Q1000 210 988 177Q976 144 948 113Q956 79 976 59Q996 39 1024.50 34.50Q1053 30 1088 43Q1123 56 1160 88M398 262L534 689Q481 691 425.50 688Q370 685 310 674L398 262Z"  horiz-adv-x="1307" vert-adv-y="1000"  />

      
      <glyph glyph-name="uni5c" unicode="&#x5c;" d="M1160 88Q1155 133 1188 188Q1214 233 1246.50 255Q1279 277 1300 265Q1317 255 1318.50 233Q1320 211 1311 184Q1302 157 1285.50 129Q1269 101 1249.50 80.50Q1230 60 1211 51.50Q1192 43 1177 54L1175 54Q1139 20 1099 4Q1059-12 1022-10Q985-8 953.50 13Q922 34 902 74Q885 63 866 53.50Q847 44 825 35Q774 14 696-2Q618-18 528-22Q438-26 344-15Q250-4 167 28L39 193Q90 170 172.50 141.50Q255 113 351 90Q447 67 545.50 55Q644 43 727 53.50Q810 64 867 102.50Q924 141 937 219Q943 256 909.50 303Q876 350 805 381Q775 394 737.50 400.50Q700 407 663 410Q626 413 593 413.50Q560 414 537 415L529 470Q559 474 598.50 482Q638 490 673.50 503.50Q709 517 733.50 536Q758 555 760 581Q762 606 748 624Q734 642 713.50 653.50Q693 665 669 671.50Q645 678 626 681Q612 682 599.50 683.50Q587 685 575 685L418 144L372 111L272 666Q250 661 226.50 654.50Q203 648 179 640L192 697Q203 701 221.50 707Q240 713 264 717L252 782L279 823L302 722Q354 731 419 734.50Q484 738 549 734L587 853L614 823L587 728Q629 722 665.50 711Q702 700 729 683Q756 666 771 642.50Q786 619 785 589Q784 559 768 537Q752 515 726.50 498.50Q701 482 668 471Q635 460 599 451Q666 450 733.50 437.50Q801 425 853 398Q878 385 902.50 369.50Q927 354 947 334.50Q967 315 980.50 290Q994 265 998 232Q1000 210 988 177Q976 144 948 113Q956 79 976 59Q996 39 1024.50 34.50Q1053 30 1088 43Q1123 56 1160 88M398 262L534 689Q481 691 425.50 688Q370 685 310 674L398 262Z"  horiz-adv-x="1307" vert-adv-y="1000"  />

      
      <glyph glyph-name="uni5d" unicode="&#x5d;" d="M1160 88Q1155 133 1188 188Q1214 233 1246.50 255Q1279 277 1300 265Q1317 255 1318.50 233Q1320 211 1311 184Q1302 157 1285.50 129Q1269 101 1249.50 80.50Q1230 60 1211 51.50Q1192 43 1177 54L1175 54Q1139 20 1099 4Q1059-12 1022-10Q985-8 953.50 13Q922 34 902 74Q885 63 866 53.50Q847 44 825 35Q774 14 696-2Q618-18 528-22Q438-26 344-15Q250-4 167 28L39 193Q90 170 172.50 141.50Q255 113 351 90Q447 67 545.50 55Q644 43 727 53.50Q810 64 867 102.50Q924 141 937 219Q943 256 909.50 303Q876 350 805 381Q775 394 737.50 400.50Q700 407 663 410Q626 413 593 413.50Q560 414 537 415L529 470Q559 474 598.50 482Q638 490 673.50 503.50Q709 517 733.50 536Q758 555 760 581Q762 606 748 624Q734 642 713.50 653.50Q693 665 669 671.50Q645 678 626 681Q612 682 599.50 683.50Q587 685 575 685L418 144L372 111L272 666Q250 661 226.50 654.50Q203 648 179 640L192 697Q203 701 221.50 707Q240 713 264 717L252 782L279 823L302 722Q354 731 419 734.50Q484 738 549 734L587 853L614 823L587 728Q629 722 665.50 711Q702 700 729 683Q756 666 771 642.50Q786 619 785 589Q784 559 768 537Q752 515 726.50 498.50Q701 482 668 471Q635 460 599 451Q666 450 733.50 437.50Q801 425 853 398Q878 385 902.50 369.50Q927 354 947 334.50Q967 315 980.50 290Q994 265 998 232Q1000 210 988 177Q976 144 948 113Q956 79 976 59Q996 39 1024.50 34.50Q1053 30 1088 43Q1123 56 1160 88M398 262L534 689Q481 691 425.50 688Q370 685 310 674L398 262Z"  horiz-adv-x="1307" vert-adv-y="1000"  />

      
      <glyph glyph-name="uni5e" unicode="&#x5e;" d="M1160 88Q1155 133 1188 188Q1214 233 1246.50 255Q1279 277 1300 265Q1317 255 1318.50 233Q1320 211 1311 184Q1302 157 1285.50 129Q1269 101 1249.50 80.50Q1230 60 1211 51.50Q1192 43 1177 54L1175 54Q1139 20 1099 4Q1059-12 1022-10Q985-8 953.50 13Q922 34 902 74Q885 63 866 53.50Q847 44 825 35Q774 14 696-2Q618-18 528-22Q438-26 344-15Q250-4 167 28L39 193Q90 170 172.50 141.50Q255 113 351 90Q447 67 545.50 55Q644 43 727 53.50Q810 64 867 102.50Q924 141 937 219Q943 256 909.50 303Q876 350 805 381Q775 394 737.50 400.50Q700 407 663 410Q626 413 593 413.50Q560 414 537 415L529 470Q559 474 598.50 482Q638 490 673.50 503.50Q709 517 733.50 536Q758 555 760 581Q762 606 748 624Q734 642 713.50 653.50Q693 665 669 671.50Q645 678 626 681Q612 682 599.50 683.50Q587 685 575 685L418 144L372 111L272 666Q250 661 226.50 654.50Q203 648 179 640L192 697Q203 701 221.50 707Q240 713 264 717L252 782L279 823L302 722Q354 731 419 734.50Q484 738 549 734L587 853L614 823L587 728Q629 722 665.50 711Q702 700 729 683Q756 666 771 642.50Q786 619 785 589Q784 559 768 537Q752 515 726.50 498.50Q701 482 668 471Q635 460 599 451Q666 450 733.50 437.50Q801 425 853 398Q878 385 902.50 369.50Q927 354 947 334.50Q967 315 980.50 290Q994 265 998 232Q1000 210 988 177Q976 144 948 113Q956 79 976 59Q996 39 1024.50 34.50Q1053 30 1088 43Q1123 56 1160 88M398 262L534 689Q481 691 425.50 688Q370 685 310 674L398 262Z"  horiz-adv-x="1307" vert-adv-y="1000"  />

      
      <glyph glyph-name="uni5f" unicode="&#x5f;" d="M546 29L546-30L30-1L546 29Z"  horiz-adv-x="587" vert-adv-y="1000"  />

      
      <glyph glyph-name="uni61" unicode="&#x61;" d="M1160 88Q1155 133 1188 188Q1214 233 1246.50 255Q1279 277 1300 265Q1317 255 1318.50 233Q1320 211 1311 184Q1302 157 1285.50 129Q1269 101 1249.50 80.50Q1230 60 1211 51.50Q1192 43 1177 54L1175 54Q1139 20 1099 4Q1059-12 1022-10Q985-8 953.50 13Q922 34 902 74Q885 63 866 53.50Q847 44 825 35Q774 14 696-2Q618-18 528-22Q438-26 344-15Q250-4 167 28L39 193Q90 170 172.50 141.50Q255 113 351 90Q447 67 545.50 55Q644 43 727 53.50Q810 64 867 102.50Q924 141 937 219Q943 256 909.50 303Q876 350 805 381Q775 394 737.50 400.50Q700 407 663 410Q626 413 593 413.50Q560 414 537 415L529 470Q559 474 598.50 482Q638 490 673.50 503.50Q709 517 733.50 536Q758 555 760 581Q762 606 748 624Q734 642 713.50 653.50Q693 665 669 671.50Q645 678 626 681Q612 682 599.50 683.50Q587 685 575 685L418 144L372 111L272 666Q250 661 226.50 654.50Q203 648 179 640L192 697Q203 701 221.50 707Q240 713 264 717L252 782L279 823L302 722Q354 731 419 734.50Q484 738 549 734L587 853L614 823L587 728Q629 722 665.50 711Q702 700 729 683Q756 666 771 642.50Q786 619 785 589Q784 559 768 537Q752 515 726.50 498.50Q701 482 668 471Q635 460 599 451Q666 450 733.50 437.50Q801 425 853 398Q878 385 902.50 369.50Q927 354 947 334.50Q967 315 980.50 290Q994 265 998 232Q1000 210 988 177Q976 144 948 113Q956 79 976 59Q996 39 1024.50 34.50Q1053 30 1088 43Q1123 56 1160 88M398 262L534 689Q481 691 425.50 688Q370 685 310 674L398 262Z"  horiz-adv-x="1307" vert-adv-y="1000"  />

      
      <glyph glyph-name="uni62" unicode="&#x62;" d="M1160 88Q1155 133 1188 188Q1214 233 1246.50 255Q1279 277 1300 265Q1317 255 1318.50 233Q1320 211 1311 184Q1302 157 1285.50 129Q1269 101 1249.50 80.50Q1230 60 1211 51.50Q1192 43 1177 54L1175 54Q1139 20 1099 4Q1059-12 1022-10Q985-8 953.50 13Q922 34 902 74Q885 63 866 53.50Q847 44 825 35Q774 14 696-2Q618-18 528-22Q438-26 344-15Q250-4 167 28L39 193Q90 170 172.50 141.50Q255 113 351 90Q447 67 545.50 55Q644 43 727 53.50Q810 64 867 102.50Q924 141 937 219Q943 256 909.50 303Q876 350 805 381Q775 394 737.50 400.50Q700 407 663 410Q626 413 593 413.50Q560 414 537 415L529 470Q559 474 598.50 482Q638 490 673.50 503.50Q709 517 733.50 536Q758 555 760 581Q762 606 748 624Q734 642 713.50 653.50Q693 665 669 671.50Q645 678 626 681Q612 682 599.50 683.50Q587 685 575 685L418 144L372 111L272 666Q250 661 226.50 654.50Q203 648 179 640L192 697Q203 701 221.50 707Q240 713 264 717L252 782L279 823L302 722Q354 731 419 734.50Q484 738 549 734L587 853L614 823L587 728Q629 722 665.50 711Q702 700 729 683Q756 666 771 642.50Q786 619 785 589Q784 559 768 537Q752 515 726.50 498.50Q701 482 668 471Q635 460 599 451Q666 450 733.50 437.50Q801 425 853 398Q878 385 902.50 369.50Q927 354 947 334.50Q967 315 980.50 290Q994 265 998 232Q1000 210 988 177Q976 144 948 113Q956 79 976 59Q996 39 1024.50 34.50Q1053 30 1088 43Q1123 56 1160 88M398 262L534 689Q481 691 425.50 688Q370 685 310 674L398 262Z"  horiz-adv-x="1307" vert-adv-y="1000"  />

      
      <glyph glyph-name="uni63" unicode="&#x63;" d="M1160 88Q1155 133 1188 188Q1214 233 1246.50 255Q1279 277 1300 265Q1317 255 1318.50 233Q1320 211 1311 184Q1302 157 1285.50 129Q1269 101 1249.50 80.50Q1230 60 1211 51.50Q1192 43 1177 54L1175 54Q1139 20 1099 4Q1059-12 1022-10Q985-8 953.50 13Q922 34 902 74Q885 63 866 53.50Q847 44 825 35Q774 14 696-2Q618-18 528-22Q438-26 344-15Q250-4 167 28L39 193Q90 170 172.50 141.50Q255 113 351 90Q447 67 545.50 55Q644 43 727 53.50Q810 64 867 102.50Q924 141 937 219Q943 256 909.50 303Q876 350 805 381Q775 394 737.50 400.50Q700 407 663 410Q626 413 593 413.50Q560 414 537 415L529 470Q559 474 598.50 482Q638 490 673.50 503.50Q709 517 733.50 536Q758 555 760 581Q762 606 748 624Q734 642 713.50 653.50Q693 665 669 671.50Q645 678 626 681Q612 682 599.50 683.50Q587 685 575 685L418 144L372 111L272 666Q250 661 226.50 654.50Q203 648 179 640L192 697Q203 701 221.50 707Q240 713 264 717L252 782L279 823L302 722Q354 731 419 734.50Q484 738 549 734L587 853L614 823L587 728Q629 722 665.50 711Q702 700 729 683Q756 666 771 642.50Q786 619 785 589Q784 559 768 537Q752 515 726.50 498.50Q701 482 668 471Q635 460 599 451Q666 450 733.50 437.50Q801 425 853 398Q878 385 902.50 369.50Q927 354 947 334.50Q967 315 980.50 290Q994 265 998 232Q1000 210 988 177Q976 144 948 113Q956 79 976 59Q996 39 1024.50 34.50Q1053 30 1088 43Q1123 56 1160 88M398 262L534 689Q481 691 425.50 688Q370 685 310 674L398 262Z"  horiz-adv-x="1307" vert-adv-y="1000"  />

      
      <glyph glyph-name="uni64" unicode="&#x64;" d="M1160 88Q1155 133 1188 188Q1214 233 1246.50 255Q1279 277 1300 265Q1317 255 1318.50 233Q1320 211 1311 184Q1302 157 1285.50 129Q1269 101 1249.50 80.50Q1230 60 1211 51.50Q1192 43 1177 54L1175 54Q1139 20 1099 4Q1059-12 1022-10Q985-8 953.50 13Q922 34 902 74Q885 63 866 53.50Q847 44 825 35Q774 14 696-2Q618-18 528-22Q438-26 344-15Q250-4 167 28L39 193Q90 170 172.50 141.50Q255 113 351 90Q447 67 545.50 55Q644 43 727 53.50Q810 64 867 102.50Q924 141 937 219Q943 256 909.50 303Q876 350 805 381Q775 394 737.50 400.50Q700 407 663 410Q626 413 593 413.50Q560 414 537 415L529 470Q559 474 598.50 482Q638 490 673.50 503.50Q709 517 733.50 536Q758 555 760 581Q762 606 748 624Q734 642 713.50 653.50Q693 665 669 671.50Q645 678 626 681Q612 682 599.50 683.50Q587 685 575 685L418 144L372 111L272 666Q250 661 226.50 654.50Q203 648 179 640L192 697Q203 701 221.50 707Q240 713 264 717L252 782L279 823L302 722Q354 731 419 734.50Q484 738 549 734L587 853L614 823L587 728Q629 722 665.50 711Q702 700 729 683Q756 666 771 642.50Q786 619 785 589Q784 559 768 537Q752 515 726.50 498.50Q701 482 668 471Q635 460 599 451Q666 450 733.50 437.50Q801 425 853 398Q878 385 902.50 369.50Q927 354 947 334.50Q967 315 980.50 290Q994 265 998 232Q1000 210 988 177Q976 144 948 113Q956 79 976 59Q996 39 1024.50 34.50Q1053 30 1088 43Q1123 56 1160 88M398 262L534 689Q481 691 425.50 688Q370 685 310 674L398 262Z"  horiz-adv-x="1307" vert-adv-y="1000"  />

      
      <glyph glyph-name="uni65" unicode="&#x65;" d="M1160 88Q1155 133 1188 188Q1214 233 1246.50 255Q1279 277 1300 265Q1317 255 1318.50 233Q1320 211 1311 184Q1302 157 1285.50 129Q1269 101 1249.50 80.50Q1230 60 1211 51.50Q1192 43 1177 54L1175 54Q1139 20 1099 4Q1059-12 1022-10Q985-8 953.50 13Q922 34 902 74Q885 63 866 53.50Q847 44 825 35Q774 14 696-2Q618-18 528-22Q438-26 344-15Q250-4 167 28L39 193Q90 170 172.50 141.50Q255 113 351 90Q447 67 545.50 55Q644 43 727 53.50Q810 64 867 102.50Q924 141 937 219Q943 256 909.50 303Q876 350 805 381Q775 394 737.50 400.50Q700 407 663 410Q626 413 593 413.50Q560 414 537 415L529 470Q559 474 598.50 482Q638 490 673.50 503.50Q709 517 733.50 536Q758 555 760 581Q762 606 748 624Q734 642 713.50 653.50Q693 665 669 671.50Q645 678 626 681Q612 682 599.50 683.50Q587 685 575 685L418 144L372 111L272 666Q250 661 226.50 654.50Q203 648 179 640L192 697Q203 701 221.50 707Q240 713 264 717L252 782L279 823L302 722Q354 731 419 734.50Q484 738 549 734L587 853L614 823L587 728Q629 722 665.50 711Q702 700 729 683Q756 666 771 642.50Q786 619 785 589Q784 559 768 537Q752 515 726.50 498.50Q701 482 668 471Q635 460 599 451Q666 450 733.50 437.50Q801 425 853 398Q878 385 902.50 369.50Q927 354 947 334.50Q967 315 980.50 290Q994 265 998 232Q1000 210 988 177Q976 144 948 113Q956 79 976 59Q996 39 1024.50 34.50Q1053 30 1088 43Q1123 56 1160 88M398 262L534 689Q481 691 425.50 688Q370 685 310 674L398 262Z"  horiz-adv-x="1307" vert-adv-y="1000"  />

      
      <glyph glyph-name="uni66" unicode="&#x66;" d="M1160 88Q1155 133 1188 188Q1214 233 1246.50 255Q1279 277 1300 265Q1317 255 1318.50 233Q1320 211 1311 184Q1302 157 1285.50 129Q1269 101 1249.50 80.50Q1230 60 1211 51.50Q1192 43 1177 54L1175 54Q1139 20 1099 4Q1059-12 1022-10Q985-8 953.50 13Q922 34 902 74Q885 63 866 53.50Q847 44 825 35Q774 14 696-2Q618-18 528-22Q438-26 344-15Q250-4 167 28L39 193Q90 170 172.50 141.50Q255 113 351 90Q447 67 545.50 55Q644 43 727 53.50Q810 64 867 102.50Q924 141 937 219Q943 256 909.50 303Q876 350 805 381Q775 394 737.50 400.50Q700 407 663 410Q626 413 593 413.50Q560 414 537 415L529 470Q559 474 598.50 482Q638 490 673.50 503.50Q709 517 733.50 536Q758 555 760 581Q762 606 748 624Q734 642 713.50 653.50Q693 665 669 671.50Q645 678 626 681Q612 682 599.50 683.50Q587 685 575 685L418 144L372 111L272 666Q250 661 226.50 654.50Q203 648 179 640L192 697Q203 701 221.50 707Q240 713 264 717L252 782L279 823L302 722Q354 731 419 734.50Q484 738 549 734L587 853L614 823L587 728Q629 722 665.50 711Q702 700 729 683Q756 666 771 642.50Q786 619 785 589Q784 559 768 537Q752 515 726.50 498.50Q701 482 668 471Q635 460 599 451Q666 450 733.50 437.50Q801 425 853 398Q878 385 902.50 369.50Q927 354 947 334.50Q967 315 980.50 290Q994 265 998 232Q1000 210 988 177Q976 144 948 113Q956 79 976 59Q996 39 1024.50 34.50Q1053 30 1088 43Q1123 56 1160 88M398 262L534 689Q481 691 425.50 688Q370 685 310 674L398 262Z"  horiz-adv-x="1307" vert-adv-y="1000"  />

      
      <glyph glyph-name="uni67" unicode="&#x67;" d="M1160 88Q1155 133 1188 188Q1214 233 1246.50 255Q1279 277 1300 265Q1317 255 1318.50 233Q1320 211 1311 184Q1302 157 1285.50 129Q1269 101 1249.50 80.50Q1230 60 1211 51.50Q1192 43 1177 54L1175 54Q1139 20 1099 4Q1059-12 1022-10Q985-8 953.50 13Q922 34 902 74Q885 63 866 53.50Q847 44 825 35Q774 14 696-2Q618-18 528-22Q438-26 344-15Q250-4 167 28L39 193Q90 170 172.50 141.50Q255 113 351 90Q447 67 545.50 55Q644 43 727 53.50Q810 64 867 102.50Q924 141 937 219Q943 256 909.50 303Q876 350 805 381Q775 394 737.50 400.50Q700 407 663 410Q626 413 593 413.50Q560 414 537 415L529 470Q559 474 598.50 482Q638 490 673.50 503.50Q709 517 733.50 536Q758 555 760 581Q762 606 748 624Q734 642 713.50 653.50Q693 665 669 671.50Q645 678 626 681Q612 682 599.50 683.50Q587 685 575 685L418 144L372 111L272 666Q250 661 226.50 654.50Q203 648 179 640L192 697Q203 701 221.50 707Q240 713 264 717L252 782L279 823L302 722Q354 731 419 734.50Q484 738 549 734L587 853L614 823L587 728Q629 722 665.50 711Q702 700 729 683Q756 666 771 642.50Q786 619 785 589Q784 559 768 537Q752 515 726.50 498.50Q701 482 668 471Q635 460 599 451Q666 450 733.50 437.50Q801 425 853 398Q878 385 902.50 369.50Q927 354 947 334.50Q967 315 980.50 290Q994 265 998 232Q1000 210 988 177Q976 144 948 113Q956 79 976 59Q996 39 1024.50 34.50Q1053 30 1088 43Q1123 56 1160 88M398 262L534 689Q481 691 425.50 688Q370 685 310 674L398 262Z"  horiz-adv-x="1307" vert-adv-y="1000"  />

      
      <glyph glyph-name="uni68" unicode="&#x68;" d="M1160 88Q1155 133 1188 188Q1214 233 1246.50 255Q1279 277 1300 265Q1317 255 1318.50 233Q1320 211 1311 184Q1302 157 1285.50 129Q1269 101 1249.50 80.50Q1230 60 1211 51.50Q1192 43 1177 54L1175 54Q1139 20 1099 4Q1059-12 1022-10Q985-8 953.50 13Q922 34 902 74Q885 63 866 53.50Q847 44 825 35Q774 14 696-2Q618-18 528-22Q438-26 344-15Q250-4 167 28L39 193Q90 170 172.50 141.50Q255 113 351 90Q447 67 545.50 55Q644 43 727 53.50Q810 64 867 102.50Q924 141 937 219Q943 256 909.50 303Q876 350 805 381Q775 394 737.50 400.50Q700 407 663 410Q626 413 593 413.50Q560 414 537 415L529 470Q559 474 598.50 482Q638 490 673.50 503.50Q709 517 733.50 536Q758 555 760 581Q762 606 748 624Q734 642 713.50 653.50Q693 665 669 671.50Q645 678 626 681Q612 682 599.50 683.50Q587 685 575 685L418 144L372 111L272 666Q250 661 226.50 654.50Q203 648 179 640L192 697Q203 701 221.50 707Q240 713 264 717L252 782L279 823L302 722Q354 731 419 734.50Q484 738 549 734L587 853L614 823L587 728Q629 722 665.50 711Q702 700 729 683Q756 666 771 642.50Q786 619 785 589Q784 559 768 537Q752 515 726.50 498.50Q701 482 668 471Q635 460 599 451Q666 450 733.50 437.50Q801 425 853 398Q878 385 902.50 369.50Q927 354 947 334.50Q967 315 980.50 290Q994 265 998 232Q1000 210 988 177Q976 144 948 113Q956 79 976 59Q996 39 1024.50 34.50Q1053 30 1088 43Q1123 56 1160 88M398 262L534 689Q481 691 425.50 688Q370 685 310 674L398 262Z"  horiz-adv-x="1307" vert-adv-y="1000"  />

      
      <glyph glyph-name="uni69" unicode="&#x69;" d="M1160 88Q1155 133 1188 188Q1214 233 1246.50 255Q1279 277 1300 265Q1317 255 1318.50 233Q1320 211 1311 184Q1302 157 1285.50 129Q1269 101 1249.50 80.50Q1230 60 1211 51.50Q1192 43 1177 54L1175 54Q1139 20 1099 4Q1059-12 1022-10Q985-8 953.50 13Q922 34 902 74Q885 63 866 53.50Q847 44 825 35Q774 14 696-2Q618-18 528-22Q438-26 344-15Q250-4 167 28L39 193Q90 170 172.50 141.50Q255 113 351 90Q447 67 545.50 55Q644 43 727 53.50Q810 64 867 102.50Q924 141 937 219Q943 256 909.50 303Q876 350 805 381Q775 394 737.50 400.50Q700 407 663 410Q626 413 593 413.50Q560 414 537 415L529 470Q559 474 598.50 482Q638 490 673.50 503.50Q709 517 733.50 536Q758 555 760 581Q762 606 748 624Q734 642 713.50 653.50Q693 665 669 671.50Q645 678 626 681Q612 682 599.50 683.50Q587 685 575 685L418 144L372 111L272 666Q250 661 226.50 654.50Q203 648 179 640L192 697Q203 701 221.50 707Q240 713 264 717L252 782L279 823L302 722Q354 731 419 734.50Q484 738 549 734L587 853L614 823L587 728Q629 722 665.50 711Q702 700 729 683Q756 666 771 642.50Q786 619 785 589Q784 559 768 537Q752 515 726.50 498.50Q701 482 668 471Q635 460 599 451Q666 450 733.50 437.50Q801 425 853 398Q878 385 902.50 369.50Q927 354 947 334.50Q967 315 980.50 290Q994 265 998 232Q1000 210 988 177Q976 144 948 113Q956 79 976 59Q996 39 1024.50 34.50Q1053 30 1088 43Q1123 56 1160 88M398 262L534 689Q481 691 425.50 688Q370 685 310 674L398 262Z"  horiz-adv-x="1307" vert-adv-y="1000"  />

      
      <glyph glyph-name="uni6a" unicode="&#x6a;" d="M1160 88Q1155 133 1188 188Q1214 233 1246.50 255Q1279 277 1300 265Q1317 255 1318.50 233Q1320 211 1311 184Q1302 157 1285.50 129Q1269 101 1249.50 80.50Q1230 60 1211 51.50Q1192 43 1177 54L1175 54Q1139 20 1099 4Q1059-12 1022-10Q985-8 953.50 13Q922 34 902 74Q885 63 866 53.50Q847 44 825 35Q774 14 696-2Q618-18 528-22Q438-26 344-15Q250-4 167 28L39 193Q90 170 172.50 141.50Q255 113 351 90Q447 67 545.50 55Q644 43 727 53.50Q810 64 867 102.50Q924 141 937 219Q943 256 909.50 303Q876 350 805 381Q775 394 737.50 400.50Q700 407 663 410Q626 413 593 413.50Q560 414 537 415L529 470Q559 474 598.50 482Q638 490 673.50 503.50Q709 517 733.50 536Q758 555 760 581Q762 606 748 624Q734 642 713.50 653.50Q693 665 669 671.50Q645 678 626 681Q612 682 599.50 683.50Q587 685 575 685L418 144L372 111L272 666Q250 661 226.50 654.50Q203 648 179 640L192 697Q203 701 221.50 707Q240 713 264 717L252 782L279 823L302 722Q354 731 419 734.50Q484 738 549 734L587 853L614 823L587 728Q629 722 665.50 711Q702 700 729 683Q756 666 771 642.50Q786 619 785 589Q784 559 768 537Q752 515 726.50 498.50Q701 482 668 471Q635 460 599 451Q666 450 733.50 437.50Q801 425 853 398Q878 385 902.50 369.50Q927 354 947 334.50Q967 315 980.50 290Q994 265 998 232Q1000 210 988 177Q976 144 948 113Q956 79 976 59Q996 39 1024.50 34.50Q1053 30 1088 43Q1123 56 1160 88M398 262L534 689Q481 691 425.50 688Q370 685 310 674L398 262Z"  horiz-adv-x="1307" vert-adv-y="1000"  />

      
      <glyph glyph-name="uni6b" unicode="&#x6b;" d="M1160 88Q1155 133 1188 188Q1214 233 1246.50 255Q1279 277 1300 265Q1317 255 1318.50 233Q1320 211 1311 184Q1302 157 1285.50 129Q1269 101 1249.50 80.50Q1230 60 1211 51.50Q1192 43 1177 54L1175 54Q1139 20 1099 4Q1059-12 1022-10Q985-8 953.50 13Q922 34 902 74Q885 63 866 53.50Q847 44 825 35Q774 14 696-2Q618-18 528-22Q438-26 344-15Q250-4 167 28L39 193Q90 170 172.50 141.50Q255 113 351 90Q447 67 545.50 55Q644 43 727 53.50Q810 64 867 102.50Q924 141 937 219Q943 256 909.50 303Q876 350 805 381Q775 394 737.50 400.50Q700 407 663 410Q626 413 593 413.50Q560 414 537 415L529 470Q559 474 598.50 482Q638 490 673.50 503.50Q709 517 733.50 536Q758 555 760 581Q762 606 748 624Q734 642 713.50 653.50Q693 665 669 671.50Q645 678 626 681Q612 682 599.50 683.50Q587 685 575 685L418 144L372 111L272 666Q250 661 226.50 654.50Q203 648 179 640L192 697Q203 701 221.50 707Q240 713 264 717L252 782L279 823L302 722Q354 731 419 734.50Q484 738 549 734L587 853L614 823L587 728Q629 722 665.50 711Q702 700 729 683Q756 666 771 642.50Q786 619 785 589Q784 559 768 537Q752 515 726.50 498.50Q701 482 668 471Q635 460 599 451Q666 450 733.50 437.50Q801 425 853 398Q878 385 902.50 369.50Q927 354 947 334.50Q967 315 980.50 290Q994 265 998 232Q1000 210 988 177Q976 144 948 113Q956 79 976 59Q996 39 1024.50 34.50Q1053 30 1088 43Q1123 56 1160 88M398 262L534 689Q481 691 425.50 688Q370 685 310 674L398 262Z"  horiz-adv-x="1307" vert-adv-y="1000"  />

      
      <glyph glyph-name="uni6c" unicode="&#x6c;" d="M1160 88Q1155 133 1188 188Q1214 233 1246.50 255Q1279 277 1300 265Q1317 255 1318.50 233Q1320 211 1311 184Q1302 157 1285.50 129Q1269 101 1249.50 80.50Q1230 60 1211 51.50Q1192 43 1177 54L1175 54Q1139 20 1099 4Q1059-12 1022-10Q985-8 953.50 13Q922 34 902 74Q885 63 866 53.50Q847 44 825 35Q774 14 696-2Q618-18 528-22Q438-26 344-15Q250-4 167 28L39 193Q90 170 172.50 141.50Q255 113 351 90Q447 67 545.50 55Q644 43 727 53.50Q810 64 867 102.50Q924 141 937 219Q943 256 909.50 303Q876 350 805 381Q775 394 737.50 400.50Q700 407 663 410Q626 413 593 413.50Q560 414 537 415L529 470Q559 474 598.50 482Q638 490 673.50 503.50Q709 517 733.50 536Q758 555 760 581Q762 606 748 624Q734 642 713.50 653.50Q693 665 669 671.50Q645 678 626 681Q612 682 599.50 683.50Q587 685 575 685L418 144L372 111L272 666Q250 661 226.50 654.50Q203 648 179 640L192 697Q203 701 221.50 707Q240 713 264 717L252 782L279 823L302 722Q354 731 419 734.50Q484 738 549 734L587 853L614 823L587 728Q629 722 665.50 711Q702 700 729 683Q756 666 771 642.50Q786 619 785 589Q784 559 768 537Q752 515 726.50 498.50Q701 482 668 471Q635 460 599 451Q666 450 733.50 437.50Q801 425 853 398Q878 385 902.50 369.50Q927 354 947 334.50Q967 315 980.50 290Q994 265 998 232Q1000 210 988 177Q976 144 948 113Q956 79 976 59Q996 39 1024.50 34.50Q1053 30 1088 43Q1123 56 1160 88M398 262L534 689Q481 691 425.50 688Q370 685 310 674L398 262Z"  horiz-adv-x="1307" vert-adv-y="1000"  />

      
      </font>
</defs>
</svg>
